<svg version="1.2" xmlns="http://www.w3.org/2000/svg" viewBox="0 0 1782 477" width="1782" height="477">
	<title>logo</title>
	<style>
		.s0 { fill: #ffffff } 
		.s1 { fill: #f58020 } 
	</style>
	<path class="s0" d="m510 179c21.8 0 43.6 0 66 0 2.9 5.9 5.7 11.4 8.2 17.4 0.4 1.1 0.4 1.1 0.8 2.1q0.9 2.2 1.8 4.3 2.5 6.1 5 12.1 0.5 1.2 1 2.5c3.8 9 7.6 18 11.5 27q2.1 5.1 4.2 10.1 0.6 1.2 1.1 2.5 6.7 15.8 13.3 31.5c0.6 1.4 0.6 1.4 1.3 2.9q5.6 13.3 11.2 26.7c0.7 1.8 0.7 1.8 1.4 3.5q1.3 3 2.5 6.1 0.5 1.2 1.1 2.5 0.4 1.1 0.9 2.2c0.6 1.6 0.6 1.6 1.7 2.6 7.8-17.9 15.5-35.8 23.1-53.8q11.8-28 23.7-56 0.7-1.6 1.4-3.2 1.4-3.2 2.7-6.4 3.6-8.5 7.2-17 0.8-1.8 1.5-3.6 1.5-3.5 3-7 0.6-1.5 1.3-3.1c0.6-1.4 0.6-1.4 1.2-2.8 0.9-2.1 0.9-2.1 1.9-3.1q4.2-0.1 8.4-0.1 1.4 0 2.7 0 4.6 0 9.1 0 3.3 0 6.5 0 8.8 0 17.6 0 9.2 0 18.4 0 17.5 0 34.9 0 19.9 0 39.7 0 40.9 0.1 81.7 0.1c-3.1 3.1-6.2 6.2-9.5 9.1-12.1 10.9-25.6 23.8-32.4 38.8-2.8 5.7-2.8 5.7-6.3 6.8-2.7 0.3-5.4 0.3-8.2 0.2-1.6 0-1.6 0-3.2 0q-5.1 0-10.3-0.1-3.6 0-7.2-0.1-9.4 0-18.8-0.2c-7.6 0-15.1-0.1-22.7-0.1-11.5-0.1-22.9-0.3-34.4-0.4 0 18.1 0 36.3 0 55 29.4 0 58.7 0 89 0 0 11.5 0 23.1 0 35 0.3 4.6 0.7 9.2 1 14-29.7 0-59.4 0-90 0 0 33.7 0 67.3 0 102-20.1 0-40.3 0-61 0-0.3-41.9-0.7-83.8-1-127-10.7 25.1-21.4 50.1-31.8 75.4q-6 14.3-12 28.7-1.2 2.9-2.4 5.8-1.7 4-3.4 8-0.5 1.2-1 2.5c-2.3 5.5-2.3 5.5-3.4 6.6q-3.8 0.1-7.5 0.1c-1.2 0-1.2 0-2.3 0q-3.6 0-7.3 0-2.4 0-4.9-0.1-6 0-12 0c-4.4-8.4-8.2-17-11.8-25.8q-2-4.7-3.9-9.4-1-2.5-2.1-5-6.1-14.7-12.2-29.3-12-28.7-24-57.5c-0.3 41.9-0.7 83.8-1 127-20.1 0-40.3 0-61 0-0.1-9.7-0.3-19.4-0.4-29.4-0.1-3.1-0.2-6.1-0.2-9.2-0.2-14.8 0.5-26.3 7.6-39.4 13.9-36 10.2-77.8-4-113q-0.8-1.4-1.5-2.8c-1.6-3.5-1.9-5.8-1.8-9.7q0-1.9 0-3.8 0-2.1 0-4.1 0-1.8 0-3.7 0-6.9 0.1-13.8c0.1-10.2 0.1-20.5 0.2-31.1z"/>
	<path class="s0" d="m1173 179c150.5 0 150.5 0 176.4 24.3 4.4 4.5 8 9.5 11.6 14.7 0.8 1.1 0.8 1.1 1.6 2.3 13 19.6 16.1 43.9 11.8 66.6-4.3 20.9-16.6 40.6-34.4 52.7-3.7 2.4-3.7 2.4-6 2.4q14.2 24.2 28.4 48.4 2.4 4 4.8 8.1 0.8 1.3 1.7 2.7 1.6 2.8 3.2 5.5 4.3 7.3 8.6 14.5 0.9 1.5 1.8 3.1 1.8 2.9 3.5 5.8 0.8 1.3 1.6 2.7 0.7 1.1 1.4 2.3c1 1.9 1 1.9 1 3.9q-12.8 0.6-25.7 0.8-6 0.1-11.9 0.4c-25.5 1.1-25.5 1.1-31.7-2.6-3.6-3.6-5.3-7.7-6.9-12.5-1.2-3.3-3.1-6.1-5-9.1q-1.5-2.6-3-5.2-2.7-4.6-5.4-9.3-0.5-0.9-1.1-1.9c-4.3-7.4-8.8-14.8-13.2-22.1-4.1-6.8-8.1-13.7-12.1-20.5-13.2-0.3-26.4-0.7-40-1 0 27.4 0 54.8 0 83-20.1 0-40.3 0-61 0 0-85.8 0-171.6 0-260zm61 54c0 23.1 0 46.2 0 70 13.6 0.1 13.6 0.1 27.4 0.2 2.9 0 5.7 0 8.6 0.1q3.5 0 6.9 0 1.7 0 3.5 0c8.4 0 16.7-0.6 23.2-6.7 7.8-9 11.1-20.1 10.7-31.9-1.3-12-6.2-20.5-15.3-28.3-4.2-2.9-7.8-3.6-12.9-3.6q-1.7 0-3.6 0-1.8 0-3.7 0c-1.7 0-1.7 0-3.4 0q-6.4 0-12.7 0.1c-14.2 0-14.2 0-28.7 0.1z"/>
	<path class="s1" d="m1106 207q1.3 1.1 2.6 2.2c25.7 22.2 41.6 56.6 44.3 90.2 1.8 37.5-9.5 71.3-34.2 99.7-22.1 23.8-51.4 40.1-84.3 42.1q-5.7 0.2-11.4 0.2c-1 0-1 0-2 0-34.8-0.2-64.1-13.2-89-37.4-19.9-20.2-32.2-46.2-37-74q-0.3-1.5-0.6-3c-4-36.4 4.7-71.5 27.3-100.4 22.6-28 52.6-45.3 88.5-49.2 35.2-2.8 69 6 95.8 29.6zm-129 43c-17 19.4-22.2 43-21.2 68.1 1.4 20.5 10.2 39.3 24.8 53.7 14.3 12.2 31.9 16.5 50.4 15.2 15.1-1.8 27.5-8.1 38-19q1-1 2-2c12.9-14 18.9-33.2 20-52 0.1-1.2 0.1-1.2 0.2-2.3 0.7-22-6.2-43.1-20.4-59.9-11.2-11.9-25.6-19.5-42.1-20.1q-2.7 0-5.5 0c-1.5 0-1.5 0-3 0-16.9 0.3-31 6.4-43.2 18.3z"/>
	<path class="s1" d="m452.6 205.8q2.2 2.1 4.4 4.2 1.5 1.2 3.1 2.4c23.9 21.4 38.5 56.3 40.8 87.9 1.6 34.4-8 68.4-30.9 94.7q-1 1.2-2.1 2.5c-21.2 24.3-49.7 39.9-81.9 43.5-5.1 0.3-10.2 0.3-15.3 0.3-1 0-1 0-2 0-35.3-0.2-64.8-13.7-89.7-38.3-26.1-26.4-37.6-61.9-37.3-98.4 0.1-9.5 0.8-18.4 3.3-27.6q0.3-1.2 0.7-2.4c6.6-23.2 17.8-42.1 34.3-59.6q0.9-1 1.8-2c42.8-45.6 124.4-48.9 170.8-7.2zm-130.9 47.8c-15.5 20.3-20.2 44.9-17.4 70 3 19.4 11.7 37.4 26.8 50.3 15.5 11.1 32.7 14.9 51.5 12.7 13.7-2.5 24.8-8.7 34.4-18.6q0.9-0.9 1.9-1.8c14.5-15 19.7-37.5 20.3-57.8-0.7-23.7-8.6-45.4-25.8-62.1-26.7-23.1-68.8-18.8-91.7 7.3z"/>
	<path class="s0" d="m1540.7 32.4c9.3 6.5 14.1 16.8 19.3 26.6q-1.5 0-3 0c-2-2.1-3.9-4.2-5.7-6.5q-1.6-1.9-3.2-3.9-0.8-0.9-1.6-1.9c-5.6-7.1-5.6-7.1-13.4-10.9-7.1-0.2-14.8 2.5-20.1 7.2-8.9 13.9-5.2 32.7-2 48 8.6 38.8 30.7 69.7 57.5 98.1 20 21.3 33.3 42.2 43.3 69.7 8 21.7 17.2 40.8 31.2 59.2q1.2 1.5 2.4 3.1c6.4 8.7 6.4 8.7 15.8 13.3 5.2 0.2 10.3-0.6 14.8-3.4q2.3-2.2 4.6-4.4c8.4-8.1 19.1-12.6 29.4-17.6q2.4-1.2 4.7-2.4c9.8-4.8 9.8-4.8 13.3-3.6-7.5 10-15.1 17.3-26.1 23.3-5.9 3.5-9.9 7.6-13.7 13.3q-0.5 0.8-1.1 1.7-1.6 2.3-3.1 4.7-0.5 0.8-1.1 1.7c-1.4 3.5-1.2 7.1-1.2 10.9q0 1.3 0 2.7-0.1 4.3-0.1 8.6 0 2.9-0.1 5.9 0 7.9-0.1 15.7-0.1 9.5-0.2 18.9-0.1 14.3-0.2 28.6c-20.1 0-40.3 0-61 0 0-6.3 0.1-12.6 0.1-19.1q0-6.1 0-12.1-0.1-9.6 0-19.1 0.1-7.8 0-15.5 0-2.9 0-5.8c0.2-13-1.6-21.8-8.9-32.6-13-20.1-20-44.6-26-67.5q-0.4-1.7-0.9-3.5-0.8-3.2-1.6-6.5c-2.2-8.4-5.2-15.1-8.7-23.3-30.2-0.5-30.2-0.5-61-1 0 68 0 136 0 206-20.1 0-40.3 0-61 0 0-68 0-136 0-206-18.8 0-37.6 0-57 0-4-9.4-4-9.4-8-19-7.1-12.1-15.2-22.6-25.3-32.3-1.7-1.7-1.7-1.7-1.7-2.7 57.4-0.3 114.8-0.7 174-1-5.9-8.4-5.9-8.4-12-17-16.2-26.7-26.1-55.8-26.3-87.3 0-1.7 0-1.7 0-3.4-0.1-12 1.8-23.7 9.8-33 9.5-9.1 23.8-11.5 35.2-4.9z"/>
	<path class="s0" d="m251 208c-0.5 4.2-1.9 6.5-4.5 9.8-10.8 14.4-17.3 30.5-23.5 47.2-2.6-2.5-4.3-5.1-6.2-8.3-7.7-12-20.2-18.9-33.9-22.7-18.3-3.5-37.1-2-53.1 8-16.2 11.4-25.1 28-29.7 46.9-4.5 25.6-0.1 50.4 14.6 71.9 9.5 13.1 24.5 22.3 40.6 24.9 20 2.1 38.8-2.6 54.6-15.4 5.2-4.9 8.6-11.1 12.1-17.3 2.1 2.1 2.6 3.4 3.6 6.2q0.5 1.3 1 2.6 0.5 1.3 1 2.8c5.3 14.3 12 27 20.9 39.4 3.5 4.8 3.5 4.8 3.5 7-29 24.3-66 31.8-103 30-31.2-3-60.6-20.5-80.6-44.3q-2.2-2.8-4.4-5.7c-0.6-0.8-0.6-0.8-1.2-1.6-11-15.1-19.3-32.3-23.8-50.4q-0.5-1.8-1-3.7c-7.9-34.6 0.2-70.4 18.5-100.2 3.5-5.3 7.4-10.2 11.5-15.1q0.8-1 1.6-1.9c19.8-24.1 51.7-37.7 82.1-40.7 37.4-2.7 70.7 5.9 99.3 30.6z"/>
	<path class="s1" d="m62 489c3 0 5.9 0 9 0 4.4 8.3 7.9 16.8 11.3 25.5q2.5 6.2 5 12.4 0.5 1.1 1 2.4 3.7 9.2 7.6 18.4 0.4 1.2 0.9 2.3c1.2 3.3 1.2 3.3 3.2 6q2.9-6.3 5.7-12.7 1-2.2 2-4.3c4.6-9.2 4.6-9.2 4.5-19.2q-1-2.4-2.2-4.8-1.3-3.2-2.5-6.4-1.3-3.4-2.7-6.7-0.7-1.7-1.4-3.5-1.7-4.2-3.4-8.4c3 0 5.9 0 9 0 3.7 7.9 7 15.9 10 24 1.7-2.6 2.8-4.8 3.9-7.6q0.5-1.4 1.1-2.7 0.5-1.4 1.1-2.8 1-2.8 2.1-5.5 0.5-1.2 1-2.5c0.8-1.9 0.8-1.9 1.8-2.9q2.3-0.1 4.6-0.1 1.2 0.1 2.5 0.1 0.9 0 1.9 0-1.3 3.5-2.6 6.9-0.4 1.1-0.8 2.2c-1.4 3.9-2.9 7.7-4.7 11.4q-0.5 1.1-1 2.3-0.9 2.1-2 4.2c-1.7 3.8-2.2 6.2-0.9 10.2q1 2.4 2 4.8 0.6 1.5 1.2 3 2 4.8 4 9.6 0.7 1.6 1.4 3.3 1.7 4.1 3.4 8.1c2-2 2.6-3.2 3.6-5.7q0.5-1.2 1-2.4 0.5-1.2 1-2.5 0.5-1.3 1.1-2.6 1.7-4.3 3.4-8.5 1.1-2.9 2.3-5.8 2.3-5.7 4.5-11.4 3.8-9.3 7.6-18.7 0.5-1.3 1.1-2.6c2.3-5.7 2.3-5.7 3.4-6.8q2.3-0.1 4.6-0.1 1.2 0.1 2.5 0.1 0.9 0 1.9 0c-0.6 4.2-1.6 7.7-3.3 11.6q-0.7 1.7-1.5 3.4-0.4 0.9-0.8 1.8-2.2 4.9-4.3 9.9-0.5 1.1-1 2.2c-4.8 11-9.4 22.2-14.1 33.4q-1.7 4.1-3.4 8.3-0.5 1.2-1.1 2.5c-2.4 5.8-2.4 5.8-3.5 6.9-3 0-5.9 0-9 0-4.9-11.5-9.9-23.1-15-35-2.7 2.7-3.8 5.9-5.3 9.4q-0.4 1.1-0.9 2.2-1.5 3.5-2.9 7-1 2.4-2 4.8-2.5 5.8-4.9 11.6c-3 0-5.9 0-9 0-7.9-17.6-15.4-35.4-22.8-53.2q-0.6-1.3-1.2-2.7-1-2.6-2.1-5.2-2.9-7-6.2-14c-0.7-1.9-0.7-1.9-0.7-4.9z"/>
	<path class="s1" d="m898 489c3.3 0 6.6 0 10 0q6.4 11.1 12.7 22.2 2.7 4.7 5.3 9.4 2.8 4.7 5.5 9.5 0.8 1.5 1.7 3 0.7 1.3 1.5 2.7c0.7 1.1 0.7 1.1 1.4 2.3 0.9 1.9 0.9 1.9 0.9 3.9q1 0 2 0 0.4-1.1 0.8-2.1c1.3-3 2.7-5.8 4.3-8.6q0.9-1.6 1.8-3.3 1-1.8 2-3.6c0.5-0.9 0.5-0.9 1-1.8 17-30.5 17-30.5 20.1-33.6 3 0 5.9 0 9 0 0 26.4 0 52.8 0 80-3 0-5.9 0-9 0-0.3-20.1-0.7-40.3-1-61-2.3 4.1-4.5 8.2-6.9 12.4-14.4 26-14.4 26-20.1 34.6-3.1 0.2-3.1 0.2-6 0q-0.6-1.1-1.3-2.3-2.5-4.3-4.9-8.6-1.1-1.9-2.1-3.7c-6.2-10.8-12.5-21.6-18.7-32.4-0.3 20.1-0.7 40.3-1 61-3 0-5.9 0-9 0 0-26.4 0-52.8 0-80z"/>
	<path class="s1" d="m630 512c2.8 2.7 4.9 5.8 7 9q0.7-0.8 1.3-1.6c5.1-6.1 9.8-9.7 17.8-10.6 5.8-0.2 10.2 0.6 14.9 4.2 5.7 7.6 6.3 16.4 6.2 25.6q0 1.3 0 2.7 0 4.1-0.1 8.3 0 2.8 0 5.6 0 6.9-0.1 13.8c-3 0-5.9 0-9 0q0-1.7 0-3.5-0.1-6.6-0.3-13.2 0-2.8 0-5.6-0.1-4.1-0.2-8.2 0-1.2 0-2.5c-0.1-5.6-1.2-9.9-3.5-15-2.8-2.5-4.6-2.9-8.4-3.4-5.8 0.7-9.7 3.1-13.4 7.4-3.9 5.3-4.5 9-4.6 15.5q0 1.2-0.1 2.5-0.1 3.9-0.1 7.7-0.1 2.7-0.1 5.3-0.2 6.5-0.3 13c-3 0-5.9 0-9 0q0-1.9 0-3.8-0.1-6.9-0.3-13.8 0-3 0-6-0.1-4.3-0.2-8.6 0-1.4 0-2.7c-0.1-5.1-0.7-8.7-3.5-13.1-2.3-2.1-3.9-3-7.1-3.1-5.3 0.4-8.9 1.5-12.9 5.1-4.4 5.5-5.7 10.1-5.7 17.1q0 1.2-0.1 2.5 0 4 0 7.9 0 2.7-0.1 5.4-0.1 6.5-0.1 13.1c-3 0-5.9 0-9 0 0-19.5 0-38.9 0-59 2.6 0 5.3 0 8 0 0.3 3 0.7 5.9 1 9q0.7-0.7 1.5-1.4c8.9-8.3 19.2-12.1 30.5-5.6z"/>
	<path class="s1" d="m1713 513c6.6 5.2 11.4 11.7 13 20 0.9 11.1-0.1 20.6-7.3 29.4-5.7 6-11.7 8.2-20 8.7-8.3-0.3-12.9-4-19.7-9.1-0.3 10.2-0.7 20.5-1 31-3 0-5.9 0-9 0 0-27.4 0-54.8 0-83 2.6 0 5.3 0 8 0 0.3 2.6 0.7 5.3 1 8q0.6-0.6 1.2-1.2c10-9.1 22-10.7 33.8-3.8zm-33.7 12.8c-2.4 4.2-2.2 8.5-2 13.1q-0.1 1.5-0.1 2.9c0 6.2 1.2 9.8 5.2 14.6 4.1 4 9 6.3 14.8 6.9 6.2-0.5 10.2-2.7 14.6-7.1 5-7.3 6.4-13.3 5.2-22.2-2.2-7.4-6.3-12.2-13-16-9.8-3.3-18.3 0.1-24.7 7.8z"/>
	<path class="s1" d="m1554 497c-1.2 3.4-2.4 5.5-5 8q-1.4-1.1-2.8-2.3c-6.3-4.5-14.5-6.5-22.2-5.7-5 1-8.9 1.9-12.6 5.6-2.4 4.1-2.7 6.5-2.4 11.4 1.5 4 3.6 5.3 7.5 7 6.1 2.4 12.5 3.7 18.9 5.2 8 2 15.3 4.6 20.6 11.4 2.8 6.7 3 13.7 0.2 20.4-3.7 6.2-9.1 9.3-15.8 11.4-3.9 1-7.8 1-11.8 1-1.3 0-1.3 0-2.6-0.1-10.4-0.2-19.4-3.2-28-9.3-1.3-2.2-1.3-2.2-2-4 1.3-2 2.6-4 4-6q1 0.7 2.1 1.4c11.2 7.5 20.3 9.7 33.9 8.6 3.9-0.8 6.9-1.8 9.7-4.8 1.5-2.6 1.8-4.2 1.8-7.1q0-1.3 0.1-2.6c-0.9-3.7-2.7-5.1-5.6-7.5-3.3-1.5-3.3-1.5-6.9-2.6-0.9-0.3-0.9-0.3-1.9-0.6-4.1-1.2-8.1-2.3-12.2-3.3-8.8-2.2-15.8-4.7-21-12.5-2.1-6.4-1.8-13.1 0.9-19.3 3.6-6.4 8.9-9.4 15.7-11.5 13.5-3 26.4-0.3 37.4 7.8z"/>
	<path class="s0" d="m1567 77c3.7 1.2 4.5 2.6 6.8 5.7 14.3 17.7 34.4 36.9 58.1 40.1 4.4 0.4 8.9 0.3 13.3 0.2q3.3 0 6.7 0 5.1 0 10.3-0.1 5 0 10-0.1 1.5 0 3.1 0c9.1 0 18.5 0.1 25.7 6.2 2 3.1 2.3 3.8 2.3 7.3q0 1.1 0.1 2.3c-1 6.4-4.7 9.8-9.7 13.6-10.8 8.8-16.8 19.3-19.2 33.1q-0.3 0.8-0.5 1.7c-1 0.5-1 0.5-2 1q-0.1-4.7-0.2-9.5 0-1.3-0.1-2.7c-0.1-11.4 4.6-18.6 11.8-27.2 3.3-4.1 6.1-7.9 8.5-12.6-8.4-0.6-16.7-1.1-25.1-1.2q-1.1 0-2.3 0-4.7-0.1-9.4-0.1c-14.2-0.1-28.8-1.4-41.5-8.4q-1-0.5-2-1c-17.9-9.7-36.5-27.3-44.7-46.3q0-1 0-2z"/>
	<path class="s1" d="m497.1 491.7c5 3.5 9.5 7.2 12.9 12.3 0.1 2.1 0.1 2.1-1 4-3.1 1.8-3.1 1.8-6 3q-0.5-0.8-1-1.6c-3.9-5.9-8.1-9.4-15-11.4-9-1.3-16.6-0.4-24 5-6.7 5.9-10.5 14.4-11.2 23.2-0.3 10.2 2.5 19 9.2 26.8 6.7 6.2 13 8.5 22.2 8.3 7.4-0.8 13.8-4.8 18.8-10.3 1.2-2.1 1.2-2.1 2-4 5.7 1.6 5.7 1.6 8 5-4.8 8.5-10.4 13.6-19.7 16.9-10.1 2.6-21 2.3-30.3-2.9-10.2-7.4-16.7-16.6-19.7-28.8-1.2-12.4 0.4-23.9 7.9-34.1 11.1-13 30.8-20.5 46.9-11.4z"/>
	<path class="s1" d="m1644 512c8.4 6 12.5 12.1 15 22 0 3 0 5.9 0 9-16.5 0-33 0-50 0 3.7 10.2 5.8 14.8 14.9 19.5 5.9 0.9 11.7 0.5 17-2.3 3.1-2.2 4.5-3.8 6.1-7.2 2.6 0.7 5.3 1.3 8 2-2 6.4-6.3 10-12.1 13.2-8.1 3.6-16 3.6-24.4 0.8-7.7-3.2-12.7-8.7-16.5-16-3.3-8.2-3.5-18.6-0.2-26.8 4.6-8.2 11.1-14.1 20.1-16.8 7.4-1.5 15.4-1 22.1 2.6zm-31 12c-2.7 4.1-4 7-4 12 13.5 0 27.1 0 41 0-1.1-7.7-2.4-10.5-7.9-15.7-10.1-7.3-20.6-4.8-29.1 3.7z"/>
	<path class="s1" d="m1099 512c8.4 6 12.5 12.1 15 22 0 3 0 5.9 0 9-16.5 0-33 0-50 0 3.7 10.2 5.8 14.8 14.9 19.5 5.9 0.9 11.7 0.5 17-2.3 3.1-2.2 4.5-3.8 6.1-7.2 2.6 0.7 5.3 1.3 8 2-2 6.4-6.3 10-12.1 13.2-8.1 3.6-16 3.6-24.4 0.8-7.7-3.2-12.7-8.7-16.5-16-3.3-8.2-3.5-18.6-0.2-26.8 4.6-8.2 11.1-14.1 20.1-16.8 7.4-1.5 15.4-1 22.1 2.6zm-31 12c-2.7 4.1-4 7-4 12 13.5 0 27.1 0 41 0-1.1-7.7-2.4-10.5-7.9-15.7-10.1-7.3-20.6-4.8-29.1 3.7z"/>
	<path class="s1" d="m1034 512c8.4 6 12.5 12.1 15 22 0 3 0 5.9 0 9-16.5 0-33 0-50 0 3.7 10.2 5.8 14.8 14.9 19.5 5.9 0.9 11.7 0.5 17-2.3 3.1-2.2 4.5-3.8 6.1-7.2 2.6 0.7 5.3 1.3 8 2-2 6.4-6.3 10-12.1 13.2-8.1 3.6-16 3.6-24.4 0.8-7.7-3.2-12.7-8.7-16.5-16-3.3-8.2-3.5-18.6-0.2-26.8 4.6-8.2 11.1-14.1 20.1-16.8 7.4-1.5 15.4-1 22.1 2.6zm-31 12c-2.7 4.1-4 7-4 12 13.5 0 27.1 0 41 0-1.1-7.7-2.4-10.5-7.9-15.7-10.1-7.3-20.6-4.8-29.1 3.7z"/>
	<path class="s1" d="m392 512c8.4 6 12.5 12.1 15 22 0 3 0 5.9 0 9-16.5 0-33 0-50 0 3.7 10.2 5.8 14.8 14.9 19.5 5.9 0.9 11.7 0.5 17-2.3 3.1-2.2 4.5-3.8 6.1-7.2 2.6 0.7 5.3 1.3 8 2-2 6.4-6.3 10-12.1 13.2-8.1 3.6-16 3.6-24.4 0.8-7.7-3.2-12.7-8.7-16.5-16-3.3-8.2-3.5-18.6-0.2-26.8 4.6-8.2 11.1-14.1 20.1-16.8 7.4-1.5 15.4-1 22.1 2.6zm-31 12c-2.7 4.1-4 7-4 12 13.5 0 27.1 0 41 0-1.1-7.7-2.4-10.5-7.9-15.7-10.1-7.3-20.6-4.8-29.1 3.7z"/>
	<path class="s1" d="m291 512c8.4 6 12.5 12.1 15 22 0 3 0 5.9 0 9-16.5 0-33 0-50 0 3.7 10.2 5.8 14.8 14.9 19.5 5.9 0.9 11.7 0.5 17-2.3 3.1-2.2 4.5-3.8 6.1-7.2 2.6 0.7 5.3 1.3 8 2-2 6.4-6.3 10-12.1 13.2-8.1 3.6-16 3.6-24.4 0.8-7.7-3.2-12.7-8.7-16.5-16-3.3-8.2-3.5-18.6-0.2-26.8 4.6-8.2 11.1-14.1 20.1-16.8 7.4-1.5 15.4-1 22.1 2.6zm-31 12c-2.7 4.1-4 7-4 12 13.5 0 27.1 0 41 0-1.1-7.7-2.4-10.5-7.9-15.7-10.1-7.3-20.6-4.8-29.1 3.7z"/>
	<path class="s1" d="m186 487c3 0 5.9 0 9 0 0.3 10.6 0.7 21.1 1 32 2.6-2.3 5.3-4.6 8-7 6.9-3.5 13.8-4.4 21.3-1.9 6.4 4.5 9.3 9.1 10.7 16.9 0.2 3.3 0.2 6.6 0.2 10q0 1.3 0 2.8 0 4.3-0.1 8.7 0 3 0 6 0 7.2-0.1 14.5c-3 0-5.9 0-9 0q0-1.8 0-3.6-0.1-6.8-0.2-13.5 0-2.9-0.1-5.8 0-4.2-0.1-8.3 0-1.3 0-2.6c-0.1-5.8-1.3-10.4-4.6-15.2-3.7-2.6-7.5-2.2-11.8-1.5-6.1 1.4-9.6 5.7-13.2 10.5-1.6 3.3-1.2 6.9-1.3 10.5q0 1.3-0.1 2.6-0.1 4-0.2 8 0 2.8-0.1 5.5-0.2 6.7-0.3 13.4c-3 0-5.9 0-9 0 0-27.1 0-54.1 0-82z"/>
	<path class="s1" d="m1344.2 513.3c7.9 5.6 12 12.2 13.8 21.7 1 9.1-0.8 17.3-6.2 24.8-6.3 7.6-13.4 10.6-23.2 11.5-9-0.8-16.5-3.8-22.7-10.4-6-7.5-7.6-15-7.3-24.5 1-8.9 4.9-15.3 11.4-21.4 10.1-8 23.3-8.2 34.2-1.7zm-31 10.5c-5 7.3-6.4 13.3-5.2 22.2 2.2 7.3 6.3 12.4 13 16 5.2 1.6 10 1.7 15-0.5 5.6-3.1 9.6-7.7 12.4-13.4 1.5-8.2 1-14.8-3.4-22.1-3.7-4.5-8.3-8.3-14.2-9.4-7.3-0.4-12.5 2.1-17.6 7.2z"/>
	<path class="s1" d="m766.2 513.3c7.9 5.6 12 12.2 13.8 21.7 1 9.1-0.8 17.3-6.2 24.8-6.3 7.6-13.4 10.6-23.2 11.5-9-0.8-16.5-3.8-22.7-10.4-6-7.5-7.6-15-7.3-24.5 1-8.9 4.9-15.3 11.4-21.4 10.1-8 23.3-8.2 34.2-1.7zm-31 10.5c-5 7.3-6.4 13.3-5.2 22.2 2.2 7.3 6.3 12.4 13 16 5.2 1.6 10 1.7 15-0.5 5.6-3.1 9.6-7.7 12.4-13.4 1.5-8.2 1-14.8-3.4-22.1-3.7-4.5-8.3-8.3-14.2-9.4-7.3-0.4-12.5 2.1-17.6 7.2z"/>
	<path class="s1" d="m564.2 513.3c7.9 5.6 12 12.2 13.8 21.7 1 9.1-0.8 17.3-6.2 24.8-6.3 7.6-13.4 10.6-23.2 11.5-9-0.8-16.5-3.8-22.7-10.4-6-7.5-7.6-15-7.3-24.5 1-8.9 4.9-15.3 11.4-21.4 10.1-8 23.3-8.2 34.2-1.7zm-31 10.5c-5 7.3-6.4 13.3-5.2 22.2 2.2 7.3 6.3 12.4 13 16 5.2 1.6 10 1.7 15-0.5 5.6-3.1 9.6-7.7 12.4-13.4 1.5-8.2 1-14.8-3.4-22.1-3.7-4.5-8.3-8.3-14.2-9.4-7.3-0.4-12.5 2.1-17.6 7.2z"/>
	<path class="s1" d="m1369 510c3 0 5.9 0 9 0q0 1.7 0 3.5 0.1 6.6 0.3 13.2 0 2.8 0 5.6 0.1 4.1 0.2 8.2 0 1.2 0 2.5c0.2 6 0.9 11.9 4.9 16.7 3.5 2.9 7.3 2.7 11.6 2.3 6.9-2.2 11.1-6.6 15.1-12.6 1.3-3.5 1.3-7.1 1.3-10.9q0-1.2 0.1-2.5 0.1-3.9 0.1-7.7 0.1-2.7 0.1-5.3 0.2-6.5 0.3-13c2.6 0 5.3 0 8 0 0 0.9 0 0.9 0 1.9q0.2 9.7 0.3 19.4 0.1 3.6 0.1 7.2 0.1 5.2 0.2 10.4 0 1.6 0 3.3 0.1 1.4 0.1 3 0 1.3 0 2.7c0.1 2.3 0.1 2.3 2.3 4.1 0.3 2.7 0.1 5.3 0 8-3.2 0.2-5.4 0.3-8.3-1.1-2.2-2.4-2.9-4.7-3.7-7.9q-0.6 0.6-1.3 1.2c-7.1 6.4-14.1 9-23.7 8.8-4.9-0.8-8.1-2.2-11.9-5.4-7.1-10.2-5.5-24.6-5.3-36.3q0-2.9 0.1-5.7 0-6.8 0.1-13.6z"/>
	<path class="s1" d="m1234 489c3.5-0.5 6.6-0.7 10 0 2.7 2.3 4.2 5.1 5.9 8.3q0.7 1.2 1.5 2.5 1.5 2.7 3 5.4 3.2 5.7 6.6 11.3 1.5 2.7 3.1 5.4c0.7 1.2 0.7 1.2 1.4 2.4q0.6 1.1 1.2 2.2 0.7 0.7 1.3 1.5 1.5 0 3 0c1.6-2.3 3-4.6 4.3-7.1q1.3-2.3 2.7-4.7 2.3-4 4.7-8.2 2.6-4.5 5.3-9.1c0.8-1.4 0.8-1.4 1.6-2.9 1.7-2.7 3.1-4.9 5.4-7 3.5-0.8 6.5-0.6 10 0-4.3 8.2-9 16-13.9 23.9-1 1.6-1 1.6-2 3.3-1 1.6-1 1.6-2 3.2-1 1.7-1 1.7-2 3.3q-2.1 3.3-4.4 6.5c-5.9 8.6-6.9 15.4-6.7 25.6q0 2.1 0 4.2-0.1 5 0 10c-3 0-5.9 0-9 0q0.1-1.2 0.1-2.4c0.8-19.1-1.5-31.9-13-47.7-3.8-5.2-7-10.7-10.4-16.2q-1-1.5-2-3.1-0.9-1.4-1.8-2.9-0.8-1.2-1.6-2.5c-1.3-2.2-1.3-2.2-2.3-5.2z"/>
	<path class="s1" d="m1201.3 514.6q0.8 0.7 1.7 1.4c-0.6 3.3-1.6 4.7-4 7q-0.8-0.5-1.6-1.1-1.1-0.6-2.1-1.3-1.1-0.7-2.2-1.4c-5.2-2.9-11.2-2.8-17.1-2.2-3.2 1.3-5.4 2.9-7 6-0.5 3.5-0.5 3.5 0 7 5 4.1 12 5 18.1 6.6 13.7 3.6 13.7 3.6 17.1 9.4 1.6 3.9 1.3 7.9 0.8 12-2.6 5.1-5.9 8.7-11.3 10.9-10.5 3.5-20.4 2.5-30.5-2.2q-3.1-1.8-6.2-3.7c0.5-4.6 0.5-4.6 2.8-6.5 2.2-0.5 2.2-0.5 4.3 0.3q1.1 0.7 2.2 1.4c6.6 4 13.1 6.1 20.8 4.3 3.5-1.1 5.5-2 8-4.9 1.1-3.2 1.3-4.5-0.1-7.6-5-4.1-10.3-5.4-16.5-7-14.5-3.7-14.5-3.7-18.4-10.3-1.7-5.8-1.2-9.6 1.7-15 9.7-11.8 27.3-11.7 39.5-3.1z"/>
	<path class="s1" d="m1570 490c3 0 5.9 0 9 0 0 6.6 0 13.2 0 20 4.3 0 8.6 0 13 0 0 2.3 0 4.6 0 7-4.3 0-8.6 0-13 0q0.1 8.7 0.3 17.4 0 2.9 0 5.9 0.1 4.2 0.2 8.4 0 1.4 0 2.7c0 1.2 0 1.2 0.1 2.5q0 1.1 0 2.2c0.5 2.5 1.4 3.4 3.4 4.9 4.2 0.3 7.9 0 12-1 1.5 2.6 2 3.9 2 7-6.4 2.9-12 4-19 3-3.4-1.6-5.3-2.7-7.1-6-1.3-4.4-1.1-8.6-1.1-13.1q0-1.5 0-3 0-4.6 0.1-9.2 0-3.2 0-6.3 0-7.7 0.1-15.4c-2.6 0-5.3 0-8 0 0-2.3 0-4.6 0-7 2.6 0 5.3 0 8 0 0-6.6 0-13.2 0-20z"/>
	<path class="s1" d="m1127 490c3 0 5.9 0 9 0 0 6.6 0 13.2 0 20 4.3 0 8.6 0 13 0 0 2.3 0 4.6 0 7-4.3 0-8.6 0-13 0q0.1 8.7 0.3 17.4 0 2.9 0 5.9 0.1 4.2 0.2 8.4 0 1.4 0 2.7c0 1.2 0 1.2 0.1 2.5q0 1.1 0 2.2c0.5 2.5 1.4 3.4 3.4 4.9 4.2 0.3 7.9 0 12-1 1.5 2.6 2 3.9 2 7-6.4 2.9-12 4-19 3-3.4-1.6-5.3-2.7-7.1-6-1.3-4.4-1.1-8.6-1.1-13.1q0-1.5 0-3 0-4.6 0.1-9.2 0-3.2 0-6.3 0-7.7 0.1-15.4c-2.6 0-5.3 0-8 0 0-2.3 0-4.6 0-7 2.6 0 5.3 0 8 0 0-6.6 0-13.2 0-20z"/>
	<path class="s1" d="m833 490c3 0 5.9 0 9 0 0 6.6 0 13.2 0 20 4.3 0 8.6 0 13 0 0 2.3 0 4.6 0 7-4.3 0-8.6 0-13 0q0.1 8.7 0.3 17.4 0 2.9 0 5.9 0.1 4.2 0.2 8.4 0 1.4 0 2.7c0 1.2 0 1.2 0.1 2.5q0 1.1 0 2.2c0.5 2.5 1.4 3.4 3.4 4.9 4.2 0.3 7.9 0 12-1 1.5 2.6 2 3.9 2 7-6.4 2.9-12 4-19 3-3.4-1.6-5.3-2.7-7.1-6-1.3-4.4-1.1-8.6-1.1-13.1q0-1.5 0-3 0-4.6 0.1-9.2 0-3.2 0-6.3 0-7.7 0.1-15.4c-2.6 0-5.3 0-8 0 0-2.3 0-4.6 0-7 2.6 0 5.3 0 8 0 0-6.6 0-13.2 0-20z"/>
	<path class="s1" d="m720.2 486.7c1.6 0.8 1.6 0.8 3.8 2.3-0.9 4.8-0.9 4.8-2 7q-1.5-0.5-3.1-1.1c-3.9-1.1-6.9-0.9-10.9 0.1-3.3 2.4-3.8 5.3-4.7 9.2-0.6 2.9-0.6 2.9-1.3 5.8 5.3 0 10.6 0 16 0 0 2.3 0 4.6 0 7-5.3 0-10.6 0-16 0 0 17.2 0 34.3 0 52-2.6 0-5.3 0-8 0 0-17.2 0-34.3 0-52-2.6 0-5.3 0-8 0 0-2.3 0-4.6 0-7 2.6 0 5.3 0 8 0q-0.1-0.9-0.2-1.8c-0.4-7.2 1.2-12.3 5.2-18.2 5.3-5.5 14.1-5.5 21.2-3.3z"/>
	<path class="s0" d="m1677 238c4.2 1.4 7.2 3.5 10.7 6.3 9.4 7.3 18.8 12.1 31 11.8q2.2-0.1 4.4-0.1 3.3-0.1 6.7-0.2 3.3-0.1 6.6-0.1c2-0.1 2-0.1 4-0.1 4.2 0.5 6.3 1.8 9.6 4.4 2.8 4.1 2.6 8.3 2 13-1.7 6.5-4.7 12.7-10 17-2.2 0.7-2.2 0.7-4 1q1.5-3.8 3.1-7.6c2.2-5.6 3.7-9.6 1.9-15.4-2.6-1.3-4.2-1-7-0.8-17.8 1.1-31.1 0.6-45.1-11.4-11.6-10.8-11.6-10.8-13.9-17.8z"/>
	<path class="s1" d="m1436 510c2.6 0 5.3 0 8 0 0.3 3.3 0.7 6.6 1 10q0.7-1.1 1.4-2.2c3.8-4.1 8.3-7.4 14-8.1 2.2 0 2.2 0 5.6 0.3 0 2.6 0 5.3 0 8q-1.1 0.2-2.2 0.4c-7.1 1.7-12.6 3.9-16.9 10.2-1.4 3.6-1.3 7.2-1.3 11.1q0 1.3-0.1 2.5-0.1 4-0.1 8.1-0.1 2.7-0.1 5.4-0.2 6.6-0.3 13.3c-3 0-5.9 0-9 0 0-19.5 0-38.9 0-59z"/>
	<path class="s1" d="m792 510c2.6 0 5.3 0 8 0 0.3 3.3 0.7 6.6 1 10q0.7-1.1 1.4-2.2c3.8-4.1 8.3-7.4 14-8.1 2.2 0 2.2 0 5.6 0.3 0 2.6 0 5.3 0 8q-1.1 0.2-2.2 0.4c-7.1 1.7-12.6 3.9-16.9 10.2-1.4 3.6-1.3 7.2-1.3 11.1q0 1.3-0.1 2.5-0.1 4-0.1 8.1-0.1 2.7-0.1 5.4-0.2 6.6-0.3 13.3c-3 0-5.9 0-9 0 0-19.5 0-38.9 0-59z"/>
	<path class="s1" d="m316 510c2.6 0 5.3 0 8 0 0.3 3.3 0.7 6.6 1 10q0.7-1.1 1.4-2.2c3.8-4.1 8.3-7.4 14-8.1 2.2 0 2.2 0 5.6 0.3 0 2.6 0 5.3 0 8q-1.1 0.2-2.2 0.4c-7.1 1.7-12.6 3.9-16.9 10.2-1.4 3.6-1.3 7.2-1.3 11.1q0 1.3-0.1 2.5-0.1 4-0.1 8.1-0.1 2.7-0.1 5.4-0.2 6.6-0.3 13.3c-3 0-5.9 0-9 0 0-19.5 0-38.9 0-59z"/>
	<path class="s0" d="m1617 135c0.4 4.4 0.5 6.3-2.2 9.9-2.8 2.1-2.8 2.1-5.5 2.5-2.3-0.4-2.3-0.4-3.3-1.4-0.4-3.9-0.3-5.5 1.9-8.8 3.3-3.4 4.6-3.3 9.1-2.2z"/>
	<path class="s0" d="m1641.1 142.3c1.9 0.7 1.9 0.7 2.9 1.7 0.4 3.7 0.2 5.6-1.6 8.9-2.4 2.1-2.4 2.1-5.6 2.4q-1.4-0.1-2.8-0.3c-1-3.2-1.2-4.5 0.3-7.6 4-5.5 4-5.5 6.8-5.2z"/>
	<path class="s0" d="m1595.2 122.9c0.9 0.6 0.9 0.6 1.8 1.1 0.3 3.7 0.2 5.6-1.6 8.9-2.4 2.1-2.4 2.1-5.7 2.4q-1.3-0.1-2.7-0.3c-0.4-7.3-0.4-7.3 1.3-10.4 2.4-2.2 3.8-3 6.9-1.7z"/>
	<path class="s0" d="m1580 108c0.8 2.2 0.8 2.2 1 5-1.6 2.8-1.6 2.8-4 5-3.3 0.8-3.3 0.8-6 1-0.9-3.6-1.3-5.4 0.3-8.8 2.9-3.7 4.4-3.2 8.7-2.2z"/>
	<path class="s1" d="m1737 558c2.3 0 4.6 0 7 0 0 3.6 0 7.3 0 11-2.3 0-4.6 0-7 0 0-3.6 0-7.3 0-11z"/>
</svg>