<?xml version="1.0" encoding="UTF-8"?>
<svg version="1.1" xmlns="http://www.w3.org/2000/svg" width="2482" height="1188">
<path d="M0 0 C21.78 0 43.56 0 66 0 C68.93232659 5.86465318 71.6992202 11.43303541 74.171875 17.4453125 C74.59067932 18.45800957 74.59067932 18.45800957 75.01794434 19.49116516 C75.61800044 20.94269758 76.2165168 22.39486734 76.81359863 23.84762573 C78.46084699 27.85381491 80.12149446 31.85444872 81.78125 35.85546875 C82.12746399 36.69064529 82.47367798 37.52582184 82.8303833 38.38630676 C86.58282453 47.42641187 90.41275623 56.43314058 94.25 65.4375 C95.67349249 68.77981367 97.09661201 72.122286 98.51953125 75.46484375 C98.87952713 76.31044861 99.23952301 77.15605347 99.61042786 78.02728271 C104.07127892 88.51036574 108.50565233 99.00462964 112.9375 109.5 C113.54286591 110.93307999 113.54286591 110.93307999 114.16046143 112.39511108 C117.92235292 121.30205167 121.6824063 130.20955222 125.38671875 139.140625 C126.0993689 140.85862305 126.0993689 140.85862305 126.82641602 142.61132812 C127.66152749 144.62978894 128.49424579 146.64924245 129.32397461 148.66992188 C129.67339111 149.51619141 130.02280762 150.36246094 130.3828125 151.234375 C130.67559082 151.94819336 130.96836914 152.66201172 131.27001953 153.39746094 C131.89017471 155.00696514 131.89017471 155.00696514 133 156 C140.81933208 138.11592677 148.48457509 120.17021446 156.06192017 102.18237305 C163.93214275 83.50098458 171.86665656 64.84738443 179.81982422 46.20117188 C180.27517548 45.13333466 180.73052673 44.06549744 181.19967651 42.96530151 C182.10068027 40.85248129 183.00198134 38.73978782 183.90359497 36.62722778 C186.31545792 30.97129375 188.71431641 25.31009978 191.09765625 19.64208984 C191.60417725 18.43904709 192.11069824 17.23600433 192.63256836 15.99650574 C193.61076447 13.67147977 194.58691351 11.34559125 195.56079102 9.01875305 C195.99705811 7.98220078 196.4333252 6.9456485 196.8828125 5.87768555 C197.46119873 4.49808907 197.46119873 4.49808907 198.05126953 3.09062195 C199 1 199 1 200 0 C202.81947145 -0.09791283 205.61444625 -0.12992699 208.43434143 -0.12025452 C209.32949382 -0.12110894 210.22464621 -0.12196337 211.14692444 -0.12284368 C214.17031648 -0.12450124 217.19365401 -0.11897263 220.21704102 -0.11352539 C222.37479654 -0.11324355 224.53255215 -0.11340119 226.69030762 -0.1139679 C232.56816845 -0.114256 238.44600906 -0.10835719 244.32386518 -0.10139394 C250.45914944 -0.09516255 256.59443412 -0.09455677 262.72972107 -0.09336853 C274.35675432 -0.09025458 285.98377823 -0.08204033 297.61080736 -0.07201904 C310.84395117 -0.06085988 324.07709543 -0.05534795 337.31024277 -0.05032361 C364.54016704 -0.03985777 391.770083 -0.0222571 419 0 C415.90233967 3.11888612 412.763593 6.15132786 409.49780273 9.09448242 C397.44257945 19.99986193 383.91669371 32.86963594 377.12555981 47.9405632 C374.32693875 53.55313136 374.32693875 53.55313136 370.83520508 54.72903061 C368.0645027 54.9874097 365.39191884 54.98963493 362.61010742 54.90820312 C361.04356415 54.90995544 361.04356415 54.90995544 359.44537354 54.91174316 C355.99738018 54.90617456 352.55285676 54.84397494 349.10546875 54.78125 C346.7136677 54.76632726 344.32184218 54.7549404 341.93000793 54.74694824 C335.63783123 54.7164178 329.34713438 54.63784333 323.05554199 54.54931641 C315.5050744 54.45305015 307.95411165 54.41635096 300.40320587 54.36968994 C288.93444169 54.29213731 277.46892373 54.13885363 266 54 C266 72.15 266 90.3 266 109 C295.37 109 324.74 109 355 109 C355 120.55 355 132.1 355 144 C355.33 148.62 355.66 153.24 356 158 C326.3 158 296.6 158 266 158 C266 191.66 266 225.32 266 260 C245.87 260 225.74 260 205 260 C204.67 218.09 204.34 176.18 204 133 C193.25354766 158.07505547 182.57791249 183.14124744 172.16455078 208.35079956 C168.20350982 217.93598772 164.21669675 227.51040307 160.21899414 237.08035278 C159.40993008 239.01816491 158.60181585 240.9563739 157.79467773 242.89498901 C156.67797839 245.57681846 155.55816901 248.25732743 154.4375 250.9375 C154.102948 251.74264542 153.768396 252.54779083 153.42370605 253.37733459 C151.1142646 258.8857354 151.1142646 258.8857354 150 260 C147.47905924 260.08847743 144.98569107 260.11527301 142.46484375 260.09765625 C141.33496788 260.09553383 141.33496788 260.09553383 140.18226624 260.09336853 C137.7673044 260.08775376 135.35243399 260.07519883 132.9375 260.0625 C131.30403779 260.0574869 129.67057414 260.05292366 128.03710938 260.04882812 C124.02470415 260.03777954 120.01236759 260.02050506 116 260 C111.59323733 251.55570614 107.78233875 242.97411711 104.16699219 234.17041016 C102.88261427 231.04290205 101.5883417 227.91951254 100.29504395 224.79568481 C99.60336305 223.12457376 98.91220892 221.4532446 98.22155762 219.78170776 C94.18172157 210.0069011 90.08986959 200.25395016 86 190.5 C77.96993358 171.34580684 69.98823854 152.17177251 62 133 C61.67 174.91 61.34 216.82 61 260 C40.87 260 20.74 260 0 260 C-0.144375 250.285625 -0.28875 240.57125 -0.4375 230.5625 C-0.50122803 227.53263916 -0.56495605 224.50277832 -0.63061523 221.38110352 C-0.81001676 206.59305291 -0.06138169 195.07013505 7 182 C20.93767192 145.96089317 17.2399552 104.2441469 3 69 C2.49116272 68.09169434 1.98232544 67.18338867 1.45806885 66.24755859 C-0.13704082 62.69476882 -0.36389114 60.40592866 -0.34057617 56.53564453 C-0.34021362 55.25729736 -0.33985107 53.9789502 -0.33947754 52.66186523 C-0.32437545 51.31884309 -0.308876 49.97582535 -0.29296875 48.6328125 C-0.28994751 47.40038818 -0.28692627 46.16796387 -0.28381348 44.89819336 C-0.26815125 40.30704337 -0.22626733 35.71601303 -0.1875 31.125 C-0.125625 20.85375 -0.06375 10.5825 0 0 Z " fill="#FFFFFF" transform="translate(857,461)"/>
<path d="M0 0 C150.53642638 0 150.53642638 0 176.3984375 24.296875 C180.77855423 28.84798728 184.4418364 33.79207881 188 39 C188.81404297 40.14662109 188.81404297 40.14662109 189.64453125 41.31640625 C202.57197006 60.92927516 205.65677287 85.16037492 201.41259766 107.8918457 C197.06748705 128.82184939 184.75521064 148.49322424 167 160.625 C163.32596685 163 163.32596685 163 161 163 C170.44935419 179.1390268 179.91342867 195.26885695 189.43945312 211.36279297 C191.03875543 214.06549376 192.63678992 216.76894008 194.234375 219.47265625 C194.77392822 220.38571533 195.31348145 221.29877441 195.86938477 222.23950195 C196.94590128 224.06195624 198.02192053 225.88470435 199.09741211 227.70776367 C201.95383169 232.54769912 204.8223253 237.37998691 207.70703125 242.203125 C208.3103125 243.21503906 208.91359375 244.22695313 209.53515625 245.26953125 C210.69957566 247.22217304 211.86742144 249.17277659 213.0390625 251.12109375 C213.55855469 251.99378906 214.07804687 252.86648438 214.61328125 253.765625 C215.07516846 254.53680664 215.53705566 255.30798828 216.01293945 256.10253906 C217 258 217 258 217 260 C208.43788897 260.37227028 199.87920073 260.65571849 191.31097603 260.82899475 C187.33102109 260.91220933 183.35663186 261.02479138 179.37988281 261.20703125 C153.89326931 262.34384384 153.89326931 262.34384384 147.67868042 258.60250854 C144.09787994 255.04163218 142.37082521 250.87539505 140.78063965 246.14813232 C139.56925729 242.81469978 137.71187311 239.96280154 135.83203125 236.97265625 C134.83252394 235.25783446 133.83302909 233.54300293 132.83660889 231.8263855 C131.03114179 228.71671888 129.2169044 225.61217913 127.40234375 222.5078125 C127.03594788 221.88081955 126.669552 221.2538266 126.29205322 220.60783386 C121.95165514 213.19169856 117.52417195 205.82845462 113.08520508 198.47094727 C108.99222543 191.68149843 104.99576178 184.84987734 101 178 C87.8 177.67 74.6 177.34 61 177 C61 204.39 61 231.78 61 260 C40.87 260 20.74 260 0 260 C0 174.2 0 88.4 0 0 Z M61 54 C61 77.1 61 100.2 61 124 C74.5815625 124.0928125 74.5815625 124.0928125 88.4375 124.1875 C91.27915771 124.21481201 94.12081543 124.24212402 97.04858398 124.27026367 C99.32274959 124.27903264 101.59691994 124.28667561 103.87109375 124.29296875 C105.03419067 124.30831665 106.1972876 124.32366455 107.39562988 124.33947754 C115.84138435 124.34217328 124.11350575 123.67322797 130.59375 117.625 C138.38075858 108.62667897 141.68900536 97.53057196 141.28125 85.72265625 C140.04173546 73.72346686 135.06720888 65.22991688 126.02734375 57.41015625 C121.83668982 54.49526979 118.16450902 53.75091717 113.1081543 53.77294922 C111.93119995 53.77319092 110.75424561 53.77343262 109.54162598 53.77368164 C108.31488159 53.78391357 107.08813721 53.79414551 105.82421875 53.8046875 C104.12150818 53.80770874 104.12150818 53.80770874 102.38439941 53.81079102 C98.15205839 53.8212395 93.91977505 53.84916207 89.6875 53.875 C75.4871875 53.936875 75.4871875 53.936875 61 54 Z " fill="#FFFFFF" transform="translate(1520,461)"/>
<path d="M0 0 C0.85335938 0.72058594 1.70671875 1.44117188 2.5859375 2.18359375 C28.30814359 24.38383623 44.1839281 58.76785126 46.875 92.40625 C48.68196285 129.90072917 37.39776647 163.70134731 12.6875 192.0625 C-9.39552279 215.89995984 -38.72345087 232.20363753 -71.60888672 234.22143555 C-75.40867327 234.33891082 -79.19841261 234.38023471 -83 234.375 C-84.00947189 234.37418427 -84.00947189 234.37418427 -85.03933716 234.37335205 C-119.80745414 234.24498252 -149.1151689 221.18674177 -174 197 C-193.94442858 176.81894261 -206.15416224 150.78512732 -211 123 C-211.18433594 122.00097656 -211.36867188 121.00195312 -211.55859375 119.97265625 C-215.59500478 83.64495701 -206.85508722 48.54388557 -184.30908203 19.62451172 C-161.70556551 -8.42543214 -131.71117643 -25.6894414 -95.8125 -29.625 C-60.60671518 -32.37155059 -26.83546499 -23.63304545 0 0 Z M-129 43 C-146.02202101 62.41154762 -151.17721113 85.95243345 -150.19091797 111.13769531 C-148.82566387 131.6060317 -140.01338736 150.39421832 -125.4375 164.75 C-111.13356617 176.96609256 -93.47925707 181.28756354 -75 180 C-59.92443372 178.20259092 -47.51957694 171.8784135 -37 161 C-36.35417969 160.34 -35.70835937 159.68 -35.04296875 159 C-22.06894884 144.98014406 -16.11935742 125.82555667 -15 107 C-14.92072266 105.84951172 -14.92072266 105.84951172 -14.83984375 104.67578125 C-14.06517294 82.68186665 -20.99890937 61.55308597 -35.25 44.8125 C-46.40718002 32.91905937 -60.82757522 25.28621754 -77.26953125 24.69921875 C-79.11708913 24.67975688 -80.96487384 24.67625554 -82.8125 24.6875 C-84.26825439 24.69595947 -84.26825439 24.69595947 -85.75341797 24.70458984 C-102.65772511 24.99062352 -116.84923886 31.12290465 -129 43 Z " fill="#F58020" transform="translate(1453,489)"/>
<path d="M0 0 C1.45862773 1.39552569 2.9170075 2.79131065 4.375 4.1875 C5.385625 4.97125 6.39625 5.755 7.4375 6.5625 C31.4053463 27.98057541 46.02116937 62.85112175 48.25 94.47265625 C49.83680429 128.93606201 40.22888497 162.88564012 17.375 189.1875 C16.67761719 190.00605469 15.98023438 190.82460938 15.26171875 191.66796875 C-5.92348602 215.93876284 -34.47029456 231.62186026 -66.625 235.1875 C-71.71212707 235.47184626 -76.78069777 235.52205189 -81.875 235.5 C-82.89513687 235.49676727 -82.89513687 235.49676727 -83.93588257 235.49346924 C-119.20798002 235.31445195 -148.7176238 221.80398713 -173.625 197.1875 C-199.69058664 170.7528431 -211.21638493 135.24919016 -210.97460938 98.796875 C-210.79113341 89.3057128 -210.14932936 80.34878256 -207.625 71.1875 C-207.40457031 70.38473633 -207.18414063 69.58197266 -206.95703125 68.75488281 C-200.3545216 45.58496468 -189.11281444 26.68903179 -172.625 9.1875 C-172.02558594 8.52363281 -171.42617188 7.85976563 -170.80859375 7.17578125 C-128.0111069 -38.39476091 -46.40931998 -41.69912034 0 0 Z M-130.91015625 47.78515625 C-146.43009402 68.08966057 -151.12008775 92.64596837 -148.34082031 117.75488281 C-145.36140214 137.20497194 -136.65898996 155.17962814 -121.546875 168.0859375 C-106.05370105 179.22942358 -88.82932613 183.00026069 -69.98828125 180.75390625 C-56.30890233 178.28763525 -45.26119652 172.10149678 -35.625 162.1875 C-35.00238281 161.58550781 -34.37976563 160.98351562 -33.73828125 160.36328125 C-19.25179395 145.35593148 -14.01882104 122.84855517 -13.375 102.625 C-14.13901943 78.89545541 -22.04921042 57.1932253 -39.25 40.5 C-65.94758847 17.3648198 -107.99090262 21.73164571 -130.91015625 47.78515625 Z " fill="#F58020" transform="translate(799.625,487.8125)"/>
<path d="M0 0 C9.3076125 6.56824829 14.13192102 16.83067493 19.3359375 26.6484375 C18.3459375 26.6484375 17.3559375 26.6484375 16.3359375 26.6484375 C14.32520989 24.52749223 12.48525612 22.41176288 10.6484375 20.1484375 C9.56830983 18.86168095 8.48628061 17.57651816 7.40234375 16.29296875 C6.87656738 15.66729004 6.35079102 15.04161133 5.80908203 14.39697266 C0.27985473 7.27064931 0.27985473 7.27064931 -7.5390625 3.4609375 C-14.6880988 3.26391681 -22.33599783 5.95466624 -27.6640625 10.6484375 C-36.60653415 24.59409265 -32.88230415 43.33961672 -29.6640625 58.6484375 C-21.10375482 97.47673233 1.01141701 128.35118049 27.80859375 156.73413086 C47.84880936 178.02167355 61.11153888 198.92502173 71.15185547 226.42529297 C79.12566658 248.13050004 88.33188965 267.2294589 102.3359375 285.6484375 C103.12226562 286.68355469 103.90859375 287.71867187 104.71875 288.78515625 C111.1379865 297.44422611 111.1379865 297.44422611 120.48828125 302.04296875 C125.76008314 302.28628268 130.79511451 301.42010867 135.3359375 298.6484375 C136.88340418 297.19715705 138.40070657 295.71349204 139.8984375 294.2109375 C148.30245058 286.19372 158.99106998 281.68628613 169.3359375 276.6484375 C170.90905843 275.86499336 172.48199428 275.08117738 174.0546875 274.296875 C183.87871388 269.49602963 183.87871388 269.49602963 187.3359375 270.6484375 C179.81694275 280.64644686 172.28468661 287.9465019 161.23046875 293.91015625 C155.33405238 297.45118903 151.31893197 301.55941799 147.5859375 307.2109375 C147.20050781 307.77490234 146.81507813 308.33886719 146.41796875 308.91992188 C145.364268 310.47859686 144.34851597 312.06273961 143.3359375 313.6484375 C142.97223053 314.19365051 142.60852356 314.73886353 142.23379517 315.30059814 C140.86338529 318.88413077 141.02708983 322.48652383 141.01708984 326.27246094 C141.00704422 327.14111282 140.9969986 328.00976471 140.98664856 328.90473938 C140.95578807 331.77242377 140.93877342 334.64001467 140.921875 337.5078125 C140.90316566 339.49750576 140.88359243 341.48719106 140.8631897 343.47686768 C140.81183778 348.7112357 140.77222837 353.94562945 140.73504639 359.18011475 C140.68798842 365.46193569 140.62637744 371.74362864 140.56719971 378.02534485 C140.47895016 387.56632416 140.40921237 397.10727847 140.3359375 406.6484375 C120.2059375 406.6484375 100.0759375 406.6484375 79.3359375 406.6484375 C79.36816406 400.3371875 79.40039062 394.0259375 79.43359375 387.5234375 C79.43397564 383.49465541 79.43168792 379.46622045 79.41992188 375.4375 C79.4015475 369.06048954 79.39237888 362.68450759 79.44213867 356.30761719 C79.48169209 351.15879805 79.47653461 346.01169012 79.44201469 340.862854 C79.43647049 338.91113422 79.44630001 336.95930051 79.47270393 335.00775146 C79.63534957 322.01813407 77.83769951 313.24327626 70.49287987 302.4368639 C57.49697189 282.34750979 50.54705419 257.80221231 44.5546875 234.90234375 C44.2563501 233.76619629 43.9580127 232.63004883 43.65063477 231.45947266 C43.08759355 229.2941224 42.53506143 227.1259967 41.99584961 224.95458984 C39.8347131 216.57090523 36.85584676 209.8615591 33.3359375 201.6484375 C3.1409375 201.1534375 3.1409375 201.1534375 -27.6640625 200.6484375 C-27.6640625 268.6284375 -27.6640625 336.6084375 -27.6640625 406.6484375 C-47.7940625 406.6484375 -67.9240625 406.6484375 -88.6640625 406.6484375 C-88.6640625 338.6684375 -88.6640625 270.6884375 -88.6640625 200.6484375 C-107.4740625 200.6484375 -126.2840625 200.6484375 -145.6640625 200.6484375 C-149.6240625 191.2434375 -149.6240625 191.2434375 -153.6640625 181.6484375 C-160.80793273 169.57429064 -168.89778555 159.04441638 -179.01171875 149.328125 C-180.6640625 147.6484375 -180.6640625 147.6484375 -180.6640625 146.6484375 C-123.2440625 146.3184375 -65.8240625 145.9884375 -6.6640625 145.6484375 C-12.6040625 137.2334375 -12.6040625 137.2334375 -18.6640625 128.6484375 C-34.84461686 101.91534768 -44.77514116 72.82939146 -44.9140625 41.3984375 C-44.945 39.67173828 -44.945 39.67173828 -44.9765625 37.91015625 C-45.03029557 25.99484866 -43.1306317 14.21533916 -35.171875 4.90234375 C-25.70999346 -4.17472443 -11.3983513 -6.50820689 0 0 Z " fill="#FFFFFF" transform="translate(1887.6640625,314.3515625)"/>
<path d="M0 0 C-0.53967469 4.21995626 -1.87319821 6.50293822 -4.5 9.8125 C-15.2543593 24.18371002 -21.774784 40.30001936 -28 57 C-30.63742713 54.4694646 -32.33035957 51.90846211 -34.1875 48.75 C-41.86840645 36.67320287 -54.43019427 29.83295599 -68.0625 26 C-86.4458726 22.49294762 -105.18614066 23.96403476 -121.19140625 34.0390625 C-137.44548118 45.3875265 -146.29864382 61.95409659 -150.875 80.9375 C-155.35729015 106.51607791 -150.96580164 131.28570457 -136.31640625 152.80078125 C-126.83224336 165.89948177 -111.76716056 175.08526268 -95.734375 177.71484375 C-75.66449776 179.80784523 -56.88867941 175.10871002 -41.0625 162.3125 C-35.86620033 157.38293054 -32.4708798 151.20407943 -29 145 C-26.86259661 147.13740339 -26.35702806 148.38510271 -25.37109375 151.19140625 C-25.06324951 152.04516846 -24.75540527 152.89893066 -24.43823242 153.77856445 C-24.10799072 154.69726318 -23.77774902 155.61596191 -23.4375 156.5625 C-18.11346356 170.87748314 -11.36947084 183.59975942 -2.45385742 196.0012207 C1 200.8151079 1 200.8151079 1 203 C-28.03469475 227.34128926 -65.00764762 234.78751722 -102 233 C-133.23346296 229.96977761 -162.56229743 212.51495876 -182.625 188.75 C-184.10823013 186.85253443 -185.56554873 184.93460507 -187 183 C-187.59095459 182.20480957 -187.59095459 182.20480957 -188.19384766 181.39355469 C-199.22634548 166.32499048 -207.4605652 149.12083322 -212 131 C-212.31710937 129.77539062 -212.63421875 128.55078125 -212.9609375 127.2890625 C-220.93270862 92.66126994 -212.83171511 56.89837785 -194.5 27.125 C-190.99659715 21.8100426 -187.07804872 16.88193511 -183 12 C-182.48566406 11.36191406 -181.97132813 10.72382813 -181.44140625 10.06640625 C-161.64759546 -14.01874563 -129.72457564 -27.57973208 -99.3125 -30.625 C-61.88116228 -33.27117426 -28.64427835 -24.72761172 0 0 Z " fill="#FFFFFF" transform="translate(598,490)"/>
<path d="M0 0 C2.97 0 5.94 0 9 0 C13.36095783 8.27998303 16.86369125 16.80858988 20.33270264 25.48693848 C21.98253701 29.61332297 23.64655529 33.73398846 25.30859375 37.85546875 C25.63087952 38.65570465 25.95316528 39.45594055 26.28521729 40.28042603 C28.7735304 46.4544619 31.29539151 52.6134619 33.875 58.75 C34.18993408 59.504021 34.50486816 60.25804199 34.8293457 61.03491211 C36.03628744 64.25264882 36.03628744 64.25264882 38 67 C39.94652604 62.78527137 41.85054481 58.55460664 43.71899414 54.3046875 C44.35892587 52.86447815 45.0098071 51.4290788 45.67211914 49.99902344 C50.31022644 40.75913883 50.31022644 40.75913883 50.21875 30.8125 C49.5196078 29.19029952 48.77622996 27.58675809 48 26 C47.16452522 23.85491219 46.33827073 21.70621846 45.51953125 19.5546875 C44.62163358 17.32632833 43.71922756 15.09978088 42.8125 12.875 C42.34908203 11.72773437 41.88566406 10.58046875 41.40820312 9.3984375 C40.27608834 6.59732875 39.13995466 3.79792518 38 1 C40.97 1 43.94 1 47 1 C50.70597097 8.86927453 53.95613443 16.85280238 57 25 C58.73413481 22.39879779 59.78614629 20.24790753 60.91015625 17.3671875 C61.26013672 16.47902344 61.61011719 15.59085938 61.97070312 14.67578125 C62.33099609 13.75152344 62.69128906 12.82726562 63.0625 11.875 C63.78021842 10.03814895 64.50015198 8.20216137 65.22265625 6.3671875 C65.53984619 5.55362793 65.85703613 4.74006836 66.18383789 3.90185547 C67 2 67 2 68 1 C69.51928038 0.92820036 71.04167482 0.91607993 72.5625 0.9375 C73.38878906 0.94652344 74.21507812 0.95554687 75.06640625 0.96484375 C75.70449219 0.97644531 76.34257812 0.98804688 77 1 C76.14976619 3.3140063 75.29458033 5.6260289 74.4375 7.9375 C74.17590088 8.65172119 73.91430176 9.36594238 73.64477539 10.10180664 C72.20470276 13.98100494 70.67804981 17.77635603 68.9375 21.53125 C68.60435791 22.26867432 68.27121582 23.00609863 67.92797852 23.76586914 C67.28306998 25.17983547 66.6152422 26.583642 65.92163086 27.97436523 C64.21738817 31.76761957 63.71617754 34.20720001 64.9921875 38.21875 C65.63561986 39.82310573 66.30779416 41.41607652 67 43 C67.39485596 43.97718994 67.78971191 44.95437988 68.1965332 45.96118164 C69.49877018 49.17405952 70.83816634 52.36914117 72.1875 55.5625 C72.65091797 56.66658203 73.11433594 57.77066406 73.59179688 58.90820312 C74.72493853 61.60671574 75.8610628 64.30392958 77 67 C79.00552232 64.99447768 79.6137459 63.84145867 80.64477539 61.26660156 C80.95620987 60.49621048 81.26764435 59.7258194 81.58851624 58.93208313 C81.92153244 58.09340195 82.25454865 57.25472076 82.59765625 56.390625 C82.94827621 55.51951584 83.29889618 54.64840668 83.66014099 53.75090027 C84.79884905 50.91908521 85.93058273 48.08453535 87.0625 45.25 C87.83665673 43.32276382 88.611396 41.39576153 89.38671875 39.46899414 C90.90720588 35.68931364 92.42559681 31.90880449 93.94189453 28.12744141 C96.44391757 21.89036696 98.96325564 15.66054448 101.5 9.4375 C101.85457275 8.56061523 102.20914551 7.68373047 102.57446289 6.78027344 C104.88382732 1.11617268 104.88382732 1.11617268 106 0 C107.51928038 -0.07179964 109.04167482 -0.08392007 110.5625 -0.0625 C111.38878906 -0.05347656 112.21507812 -0.04445313 113.06640625 -0.03515625 C113.70449219 -0.02355469 114.34257813 -0.01195312 115 0 C114.43069674 4.23753868 113.43195676 7.73739707 111.69140625 11.63671875 C111.19995117 12.75151611 110.70849609 13.86631348 110.20214844 15.01489258 C109.93591675 15.61105377 109.66968506 16.20721497 109.39538574 16.82144165 C107.93172674 20.10073072 106.4912402 23.39015564 105.05078125 26.6796875 C104.73628021 27.39705582 104.42177917 28.11442413 104.0977478 28.85353088 C99.26241912 39.92574035 94.65975372 51.09825199 90.02786255 62.25668335 C88.87980628 65.02215873 87.72905057 67.7864991 86.578125 70.55078125 C86.23077805 71.39105865 85.88343109 72.23133606 85.52555847 73.09707642 C83.11286082 78.88713918 83.11286082 78.88713918 82 80 C79.03 80 76.06 80 73 80 C68.05 68.45 63.1 56.9 58 45 C55.28834332 47.71165668 54.19189048 50.92827257 52.7421875 54.4140625 C52.43427277 55.14370209 52.12635803 55.87334167 51.80911255 56.62509155 C50.8264804 58.95649198 49.8506729 61.29067979 48.875 63.625 C48.21008283 65.20591742 47.54472365 66.78664901 46.87890625 68.3671875 C45.24746689 72.24265382 43.62214258 76.1206337 42 80 C39.03 80 36.06 80 33 80 C25.10836066 62.39156245 17.61247412 44.62977504 10.19580078 26.81713867 C9.81645889 25.90683395 9.437117 24.99652924 9.04627991 24.05863953 C8.33528904 22.35181566 7.62527913 20.64458266 6.91648865 18.93684387 C4.95229395 14.21972652 2.90661339 9.55753236 0.73643494 4.93103027 C0 3 0 3 0 0 Z " fill="#F58020" transform="translate(409,771)"/>
<path d="M0 0 C3.3 0 6.6 0 10 0 C14.2367832 7.40105639 18.46939311 14.80447429 22.69564819 22.21154785 C24.47282668 25.32603556 26.25117566 28.43983289 28.03369141 31.55126953 C29.85975347 34.74027205 31.68052782 37.9322344 33.5 41.125 C34.0571167 42.0951001 34.6142334 43.0652002 35.18823242 44.06469727 C35.69330322 44.95342529 36.19837402 45.84215332 36.71875 46.7578125 C37.38293945 47.92014404 37.38293945 47.92014404 38.06054688 49.10595703 C39 51 39 51 39 53 C39.66 53 40.32 53 41 53 C41.26699707 52.29238525 41.53399414 51.58477051 41.80908203 50.85571289 C43.05071314 47.87839451 44.49171455 45.13017613 46.0546875 42.30859375 C46.66425293 41.20757324 47.27381836 40.10655273 47.90185547 38.97216797 C48.55923943 37.79376067 49.21696101 36.61554165 49.875 35.4375 C50.37172211 34.5451767 50.37172211 34.5451767 50.878479 33.63482666 C67.87099487 3.12900513 67.87099487 3.12900513 71 0 C73.97 0 76.94 0 80 0 C80 26.4 80 52.8 80 80 C77.03 80 74.06 80 71 80 C70.67 59.87 70.34 39.74 70 19 C67.73125 23.104375 65.4625 27.20875 63.125 31.4375 C48.72751477 57.40872785 48.72751477 57.40872785 43 66 C39.875 66.1875 39.875 66.1875 37 66 C36.57291748 65.25129639 36.14583496 64.50259277 35.70581055 63.73120117 C34.06045361 60.84746527 32.41454569 57.96404513 30.76831055 55.08081055 C30.06725663 53.85273891 29.36639838 52.62455554 28.66577148 51.39624023 C22.49026157 40.57009287 16.24496979 29.786766 10 19 C9.67 39.13 9.34 59.26 9 80 C6.03 80 3.06 80 0 80 C0 53.6 0 27.2 0 0 Z " fill="#F58020" transform="translate(1245,771)"/>
<path d="M0 0 C2.77382057 2.69288681 4.85884073 5.7882611 7 9 C7.43570313 8.45730469 7.87140625 7.91460938 8.3203125 7.35546875 C13.36416682 1.29629311 18.0826083 -2.32150208 26.078125 -3.23828125 C31.85150938 -3.43557316 36.34264729 -2.56958099 41 1 C46.6646422 8.60254611 47.31032332 17.39802576 47.1953125 26.62890625 C47.1924826 27.50401352 47.18965271 28.37912079 47.18673706 29.28074646 C47.17565394 32.04147755 47.15057257 34.80186905 47.125 37.5625 C47.11495482 39.44856298 47.10583168 41.33463111 47.09765625 43.22070312 C47.07575368 47.81393043 47.04130764 52.40690789 47 57 C44.03 57 41.06 57 38 57 C37.98541748 55.83017578 37.97083496 54.66035156 37.95581055 53.45507812 C37.89753617 49.08628832 37.82030637 44.7179983 37.73754883 40.34960938 C37.70443596 38.46427565 37.67636218 36.57884604 37.65356445 34.69335938 C37.61976624 31.97224328 37.5674397 29.25199512 37.51171875 26.53125 C37.50532883 25.69758911 37.4989389 24.86392822 37.49235535 24.00500488 C37.35349158 18.39110771 36.3367665 14.12677136 34 9 C31.1535495 6.46982178 29.39803557 6.0515972 25.625 5.5625 C19.82625658 6.26234834 15.9321877 8.67329339 12.1875 13 C8.3446206 18.2702346 7.68123534 21.97770099 7.5859375 28.484375 C7.56657135 29.29996887 7.5472052 30.11556274 7.5272522 30.95587158 C7.46760425 33.55380892 7.42113058 36.15179093 7.375 38.75 C7.33680658 40.51434194 7.29775405 42.27866551 7.2578125 44.04296875 C7.16191495 48.36182946 7.07782953 52.68077744 7 57 C4.03 57 1.06 57 -2 57 C-2.01458252 55.75911621 -2.02916504 54.51823242 -2.04418945 53.23974609 C-2.10230723 48.62129379 -2.17953947 44.00332216 -2.26245117 39.38525391 C-2.29563713 37.38923971 -2.32368868 35.39313311 -2.34643555 33.39697266 C-2.38009793 30.5220616 -2.43241977 27.64799257 -2.48828125 24.7734375 C-2.49467117 23.88570648 -2.5010611 22.99797546 -2.50764465 22.08334351 C-2.62755547 16.99218232 -3.1858698 13.41282396 -6 9 C-8.34419856 6.86264249 -9.93163589 6.04739508 -13.11328125 5.90625 C-18.3757413 6.26002883 -21.97351125 7.43106679 -26 11 C-30.42832364 16.52389811 -31.74182605 21.10485196 -31.70703125 28.09375 C-31.72215256 28.92588013 -31.73727386 29.75801025 -31.75285339 30.61535645 C-31.79545535 33.24385254 -31.80454123 35.87119427 -31.8125 38.5 C-31.83566586 40.29430094 -31.86103551 42.08857485 -31.88867188 43.8828125 C-31.95125178 48.25530914 -31.9838017 52.62709557 -32 57 C-34.97 57 -37.94 57 -41 57 C-41 37.53 -41 18.06 -41 -2 C-38.36 -2 -35.72 -2 -33 -2 C-32.67 0.97 -32.34 3.94 -32 7 C-31.5153125 6.52949219 -31.030625 6.05898438 -30.53125 5.57421875 C-21.6337654 -2.6901756 -11.29607852 -6.51696837 0 0 Z " fill="#F58020" transform="translate(977,794)"/>
<path d="M0 0 C6.62424843 5.16234533 11.38498276 11.67069812 13 20 C13.85959469 31.06199719 12.86749024 40.59357048 5.75 49.4375 C-0.02880288 55.4121945 -6.0052372 57.63737498 -14.265625 58.09375 C-22.58968604 57.80835362 -27.23724128 54.07206904 -34 49 C-34.33 59.23 -34.66 69.46 -35 80 C-37.97 80 -40.94 80 -44 80 C-44 52.61 -44 25.22 -44 -3 C-41.36 -3 -38.72 -3 -36 -3 C-35.67 -0.36 -35.34 2.28 -35 5 C-34.5875 4.60167969 -34.175 4.20335937 -33.75 3.79296875 C-23.84682712 -5.29230815 -11.84884944 -6.89246798 0 0 Z M-33.74536133 12.84399414 C-36.14914663 16.97472541 -35.86331455 21.27586529 -35.75 25.9375 C-35.77320313 26.88818359 -35.79640625 27.83886719 -35.8203125 28.81835938 C-35.76933223 34.98272335 -34.57874035 38.63841331 -30.64624023 43.40087891 C-26.51174197 47.41703843 -21.55771844 49.74924329 -15.8125 50.3125 C-9.59502909 49.80287124 -5.57622498 47.57622498 -1.1875 43.1875 C3.83513056 35.86880976 5.17484262 29.8678025 4 21 C1.75490401 13.58910445 -2.29277228 8.80263329 -9 5 C-18.81742354 1.72752549 -27.30107736 5.06731776 -33.74536133 12.84399414 Z " fill="#F58020" transform="translate(2060,795)"/>
<path d="M0 0 C-1.20358597 3.42559084 -2.35892646 5.53258609 -5 8 C-5.928125 7.236875 -6.85625 6.47375 -7.8125 5.6875 C-14.11972751 1.18416514 -22.31591238 -0.8382641 -30 0 C-35.01695583 1.00807991 -38.88572328 1.88572328 -42.5625 5.5625 C-44.99451331 9.68634866 -45.25095752 12.14815457 -45 17 C-43.47782165 20.97198465 -41.37664503 22.25612653 -37.51904297 24.04003906 C-31.4219892 26.3635141 -24.98289873 27.68784736 -18.64257812 29.1796875 C-10.56138027 31.21056445 -3.2738612 33.80536534 2 40.5625 C4.7524943 47.27170485 4.95998605 54.28321114 2.1640625 61.01171875 C-1.45852163 67.19928695 -6.89794097 70.33805541 -13.56054688 72.41772461 C-17.53251226 73.36579681 -21.36985597 73.447045 -25.4375 73.375 C-26.68853516 73.35977295 -26.68853516 73.35977295 -27.96484375 73.34423828 C-38.37342292 73.08199088 -47.42759758 70.08700102 -56 64 C-57.3125 61.80859375 -57.3125 61.80859375 -58 60 C-56.68 58.02 -55.36 56.04 -54 54 C-53.32195312 54.47050781 -52.64390625 54.94101562 -51.9453125 55.42578125 C-40.72981079 62.92867228 -31.56428927 65.11776994 -18 64 C-14.1389637 63.20946141 -11.08207745 62.16550865 -8.328125 59.19921875 C-6.77670945 56.63025711 -6.53679402 55.04741448 -6.5 52.0625 C-6.4690625 51.22847656 -6.438125 50.39445313 -6.40625 49.53515625 C-7.27892551 45.80906148 -9.05394758 44.38225263 -12 42 C-15.2561255 40.4755619 -15.2561255 40.4755619 -18.875 39.4375 C-19.8486853 39.1290918 -19.8486853 39.1290918 -20.84204102 38.81445312 C-24.86381346 37.56403079 -28.91886619 36.49877818 -33.00512695 35.48291016 C-41.80525486 33.28371205 -48.84067012 30.84218141 -54 23 C-56.14740092 16.55779725 -55.80698881 9.9202909 -53.125 3.6875 C-49.52307326 -2.67657842 -44.19979422 -5.66228777 -37.36328125 -7.83984375 C-23.89428498 -10.8482473 -11.03615957 -8.13190705 0 0 Z " fill="#F58020" transform="translate(1901,779)"/>
<path d="M0 0 C3.70567509 1.23522503 4.46015056 2.60650695 6.8125 5.6875 C21.05993435 23.43915768 41.24723399 42.60809281 64.85473633 45.80593872 C69.30539468 46.20854678 73.77019345 46.07724313 78.234375 46.02734375 C80.44010258 46.0146939 82.64583183 46.00233321 84.8515625 45.99023438 C88.29855681 45.96548697 91.74546197 45.93754409 95.19238281 45.90405273 C98.53971887 45.87360933 101.88694357 45.85600124 105.234375 45.83984375 C106.24933044 45.82638412 107.26428589 45.8129245 108.30999756 45.79905701 C117.4080623 45.76761295 126.79451187 45.90304851 134 52 C136.03988395 55.05982593 136.29446063 55.83090132 136.3125 59.3125 C136.32925781 60.05113281 136.34601562 60.78976562 136.36328125 61.55078125 C135.40283576 68.02604281 131.71372881 71.43711725 126.75 75.25 C115.91552528 84.02047954 109.86326103 94.518413 107.4921875 108.28515625 C107.32976562 108.85105469 107.16734375 109.41695313 107 110 C106.01 110.495 106.01 110.495 105 111 C104.91179073 107.83351345 104.8592095 104.66734908 104.8125 101.5 C104.78736328 100.613125 104.76222656 99.72625 104.73632812 98.8125 C104.6104086 87.39579664 109.32528518 80.19568144 116.5 71.5625 C119.84306774 67.53099162 122.61977845 63.65695521 125 59 C116.64666404 58.39143148 108.31738341 57.93256405 99.94140625 57.82421875 C99.17428314 57.81230499 98.40716003 57.80039124 97.61679077 57.78811646 C94.48173604 57.73977564 91.34706733 57.69198138 88.21166992 57.67407227 C73.97657941 57.57779915 59.42655601 56.27131889 46.6875 49.3125 C46.03563721 48.97001221 45.38377441 48.62752441 44.7121582 48.2746582 C26.84633591 38.6010758 8.19103129 21.02708309 0 2 C0 1.34 0 0.68 0 0 Z " fill="#FFFFFF" transform="translate(1914,359)"/>
<path d="M0 0 C4.9171404 3.55069297 9.45866482 7.26021953 12.85546875 12.33984375 C12.91796875 14.40234375 12.91796875 14.40234375 11.85546875 16.33984375 C8.79296875 18.08984375 8.79296875 18.08984375 5.85546875 19.33984375 C5.53835938 18.82035156 5.22125 18.30085937 4.89453125 17.765625 C0.92234946 11.82929806 -3.23156278 8.36541784 -10.14453125 6.33984375 C-19.11409151 5.08492821 -26.73217523 5.93784997 -34.14453125 11.33984375 C-40.85959727 17.19735805 -44.66715539 25.70431935 -45.30078125 34.51171875 C-45.68243323 44.75271357 -42.81867714 53.49584756 -36.14453125 61.33984375 C-29.44020556 67.58918526 -23.09778764 69.85087103 -13.953125 69.65234375 C-6.5401822 68.82753788 -0.10440026 64.83554348 4.85546875 59.33984375 C6.03594925 57.24098676 6.03594925 57.24098676 6.85546875 55.33984375 C12.60546875 56.96484375 12.60546875 56.96484375 14.85546875 60.33984375 C10.03274768 68.85052799 4.44537722 73.92433434 -4.83203125 77.21484375 C-14.99145616 79.849353 -25.88362861 79.52037876 -35.14453125 74.33984375 C-45.30182539 66.96880301 -51.85639795 57.70038906 -54.83203125 45.52734375 C-56.04418193 33.16340686 -54.43184206 21.67345173 -46.8984375 11.40234375 C-35.88057291 -1.55407608 -16.15999554 -9.06378992 0 0 Z " fill="#F58020" transform="translate(844.14453125,773.66015625)"/>
<path d="M0 0 C8.42874052 6.02231017 12.52285451 12.09141802 15 22 C15 24.97 15 27.94 15 31 C-1.5 31 -18 31 -35 31 C-31.30826743 41.15226456 -29.18170352 45.77476338 -20.125 50.5 C-14.21306005 51.44591039 -8.4325366 51.04879026 -3.0625 48.25 C-0.03216558 46.02363186 1.40957781 44.36795288 3 41 C5.64 41.66 8.28 42.32 11 43 C8.98888593 49.39899931 4.71523072 53.02947508 -1.11328125 56.15234375 C-9.21819062 59.79367984 -17.11921928 59.78205408 -25.51171875 57.03125 C-33.21107305 53.84030881 -38.17503342 48.30885333 -42 41 C-45.2748463 32.82964968 -45.50815926 22.42182879 -42.234375 14.16015625 C-37.56287647 5.98503383 -31.12854278 0.14732744 -22.09375 -2.57421875 C-14.70987522 -4.0757903 -6.67147875 -3.62330311 0 0 Z M-31 12 C-33.65094885 16.12005053 -35 19.04328635 -35 24 C-21.47 24 -7.94 24 6 24 C4.90370295 16.32592062 3.58255539 13.47027037 -1.875 8.25 C-11.97861314 0.97539854 -22.48897633 3.48897633 -31 12 Z " fill="#F58020" transform="translate(1991,794)"/>
<path d="M0 0 C8.42874052 6.02231017 12.52285451 12.09141802 15 22 C15 24.97 15 27.94 15 31 C-1.5 31 -18 31 -35 31 C-31.30826743 41.15226456 -29.18170352 45.77476338 -20.125 50.5 C-14.21306005 51.44591039 -8.4325366 51.04879026 -3.0625 48.25 C-0.03216558 46.02363186 1.40957781 44.36795288 3 41 C5.64 41.66 8.28 42.32 11 43 C8.98888593 49.39899931 4.71523072 53.02947508 -1.11328125 56.15234375 C-9.21819062 59.79367984 -17.11921928 59.78205408 -25.51171875 57.03125 C-33.21107305 53.84030881 -38.17503342 48.30885333 -42 41 C-45.2748463 32.82964968 -45.50815926 22.42182879 -42.234375 14.16015625 C-37.56287647 5.98503383 -31.12854278 0.14732744 -22.09375 -2.57421875 C-14.70987522 -4.0757903 -6.67147875 -3.62330311 0 0 Z M-31 12 C-33.65094885 16.12005053 -35 19.04328635 -35 24 C-21.47 24 -7.94 24 6 24 C4.90370295 16.32592062 3.58255539 13.47027037 -1.875 8.25 C-11.97861314 0.97539854 -22.48897633 3.48897633 -31 12 Z " fill="#F58020" transform="translate(1446,794)"/>
<path d="M0 0 C8.42874052 6.02231017 12.52285451 12.09141802 15 22 C15 24.97 15 27.94 15 31 C-1.5 31 -18 31 -35 31 C-31.30826743 41.15226456 -29.18170352 45.77476338 -20.125 50.5 C-14.21306005 51.44591039 -8.4325366 51.04879026 -3.0625 48.25 C-0.03216558 46.02363186 1.40957781 44.36795288 3 41 C5.64 41.66 8.28 42.32 11 43 C8.98888593 49.39899931 4.71523072 53.02947508 -1.11328125 56.15234375 C-9.21819062 59.79367984 -17.11921928 59.78205408 -25.51171875 57.03125 C-33.21107305 53.84030881 -38.17503342 48.30885333 -42 41 C-45.2748463 32.82964968 -45.50815926 22.42182879 -42.234375 14.16015625 C-37.56287647 5.98503383 -31.12854278 0.14732744 -22.09375 -2.57421875 C-14.70987522 -4.0757903 -6.67147875 -3.62330311 0 0 Z M-31 12 C-33.65094885 16.12005053 -35 19.04328635 -35 24 C-21.47 24 -7.94 24 6 24 C4.90370295 16.32592062 3.58255539 13.47027037 -1.875 8.25 C-11.97861314 0.97539854 -22.48897633 3.48897633 -31 12 Z " fill="#F58020" transform="translate(1381,794)"/>
<path d="M0 0 C8.42874052 6.02231017 12.52285451 12.09141802 15 22 C15 24.97 15 27.94 15 31 C-1.5 31 -18 31 -35 31 C-31.30826743 41.15226456 -29.18170352 45.77476338 -20.125 50.5 C-14.21306005 51.44591039 -8.4325366 51.04879026 -3.0625 48.25 C-0.03216558 46.02363186 1.40957781 44.36795288 3 41 C5.64 41.66 8.28 42.32 11 43 C8.98888593 49.39899931 4.71523072 53.02947508 -1.11328125 56.15234375 C-9.21819062 59.79367984 -17.11921928 59.78205408 -25.51171875 57.03125 C-33.21107305 53.84030881 -38.17503342 48.30885333 -42 41 C-45.2748463 32.82964968 -45.50815926 22.42182879 -42.234375 14.16015625 C-37.56287647 5.98503383 -31.12854278 0.14732744 -22.09375 -2.57421875 C-14.70987522 -4.0757903 -6.67147875 -3.62330311 0 0 Z M-31 12 C-33.65094885 16.12005053 -35 19.04328635 -35 24 C-21.47 24 -7.94 24 6 24 C4.90370295 16.32592062 3.58255539 13.47027037 -1.875 8.25 C-11.97861314 0.97539854 -22.48897633 3.48897633 -31 12 Z " fill="#F58020" transform="translate(739,794)"/>
<path d="M0 0 C8.42874052 6.02231017 12.52285451 12.09141802 15 22 C15 24.97 15 27.94 15 31 C-1.5 31 -18 31 -35 31 C-31.30826743 41.15226456 -29.18170352 45.77476338 -20.125 50.5 C-14.21306005 51.44591039 -8.4325366 51.04879026 -3.0625 48.25 C-0.03216558 46.02363186 1.40957781 44.36795288 3 41 C5.64 41.66 8.28 42.32 11 43 C8.98888593 49.39899931 4.71523072 53.02947508 -1.11328125 56.15234375 C-9.21819062 59.79367984 -17.11921928 59.78205408 -25.51171875 57.03125 C-33.21107305 53.84030881 -38.17503342 48.30885333 -42 41 C-45.2748463 32.82964968 -45.50815926 22.42182879 -42.234375 14.16015625 C-37.56287647 5.98503383 -31.12854278 0.14732744 -22.09375 -2.57421875 C-14.70987522 -4.0757903 -6.67147875 -3.62330311 0 0 Z M-31 12 C-33.65094885 16.12005053 -35 19.04328635 -35 24 C-21.47 24 -7.94 24 6 24 C4.90370295 16.32592062 3.58255539 13.47027037 -1.875 8.25 C-11.97861314 0.97539854 -22.48897633 3.48897633 -31 12 Z " fill="#F58020" transform="translate(638,794)"/>
<path d="M0 0 C2.97 0 5.94 0 9 0 C9.33 10.56 9.66 21.12 10 32 C12.64 29.69 15.28 27.38 18 25 C24.93661694 21.53169153 31.78095343 20.62069631 39.25 23.0625 C45.7187905 27.62005694 48.6060409 32.16680896 50 40 C50.2473512 43.32757325 50.23455098 46.63351719 50.1953125 49.96875 C50.1924826 50.88966431 50.18965271 51.81057861 50.18673706 52.75939941 C50.17562775 55.67307052 50.15054078 58.58642331 50.125 61.5 C50.11495823 63.4869747 50.10583448 65.47395426 50.09765625 67.4609375 C50.07571879 72.30741252 50.04125361 77.15365247 50 82 C47.03 82 44.06 82 41 82 C40.9906543 80.79988281 40.98130859 79.59976563 40.97167969 78.36328125 C40.9316088 73.88260683 40.86580316 69.40260671 40.79248047 64.92236328 C40.76436965 62.98853257 40.74310621 61.05458907 40.72900391 59.12060547 C40.70743679 56.32982045 40.66071744 53.54037741 40.609375 50.75 C40.60814636 49.89446533 40.60691772 49.03893066 40.60565186 48.1574707 C40.46645168 42.3670846 39.30426491 37.82949923 36 33 C32.32066925 30.37190661 28.51882501 30.84274415 24.20703125 31.46484375 C18.12768679 32.93895028 14.61515219 37.24865713 11 42 C9.36342246 45.27315509 9.7569193 48.90622231 9.68359375 52.5078125 C9.66281265 53.34843231 9.64203156 54.18905212 9.62062073 55.05514526 C9.55514561 57.74501235 9.4962498 60.43497843 9.4375 63.125 C9.39431284 64.94662489 9.35069848 66.76823971 9.30664062 68.58984375 C9.19946632 73.05979394 9.09819315 77.52984386 9 82 C6.03 82 3.06 82 0 82 C0 54.94 0 27.88 0 0 Z " fill="#F58020" transform="translate(533,769)"/>
<path d="M0 0 C7.96409963 5.57785255 11.99150566 12.17422405 13.8359375 21.7109375 C14.87152237 30.83259605 13.06089422 39.05968439 7.6484375 46.5234375 C1.30042668 54.07170247 -5.80556653 57.12218787 -15.5390625 58.0234375 C-24.56251249 57.24555388 -32.01564914 54.233883 -38.2890625 47.5859375 C-44.27784366 40.13148095 -45.86118933 32.57387105 -45.54296875 23.109375 C-44.55030977 14.20614499 -40.61664436 7.79721559 -34.1640625 1.7109375 C-24.10488807 -6.25257559 -10.88207006 -6.48209949 0 0 Z M-30.9765625 10.5234375 C-35.99919306 17.84212774 -37.33890512 23.843135 -36.1640625 32.7109375 C-33.94622369 40.03185914 -29.91061518 45.07611488 -23.1640625 48.7109375 C-17.99059635 50.31342606 -13.16313018 50.41013976 -8.1640625 48.2109375 C-2.57020618 45.14193461 1.43832447 40.50616357 4.2734375 34.8359375 C5.75637445 26.59739888 5.23966586 19.96413715 0.8359375 12.7109375 C-2.89643864 8.17156111 -7.43523825 4.37607912 -13.33203125 3.32421875 C-20.65421064 2.95873992 -25.85042571 5.39730071 -30.9765625 10.5234375 Z " fill="#F58020" transform="translate(1691.1640625,795.2890625)"/>
<path d="M0 0 C7.96409963 5.57785255 11.99150566 12.17422405 13.8359375 21.7109375 C14.87152237 30.83259605 13.06089422 39.05968439 7.6484375 46.5234375 C1.30042668 54.07170247 -5.80556653 57.12218787 -15.5390625 58.0234375 C-24.56251249 57.24555388 -32.01564914 54.233883 -38.2890625 47.5859375 C-44.27784366 40.13148095 -45.86118933 32.57387105 -45.54296875 23.109375 C-44.55030977 14.20614499 -40.61664436 7.79721559 -34.1640625 1.7109375 C-24.10488807 -6.25257559 -10.88207006 -6.48209949 0 0 Z M-30.9765625 10.5234375 C-35.99919306 17.84212774 -37.33890512 23.843135 -36.1640625 32.7109375 C-33.94622369 40.03185914 -29.91061518 45.07611488 -23.1640625 48.7109375 C-17.99059635 50.31342606 -13.16313018 50.41013976 -8.1640625 48.2109375 C-2.57020618 45.14193461 1.43832447 40.50616357 4.2734375 34.8359375 C5.75637445 26.59739888 5.23966586 19.96413715 0.8359375 12.7109375 C-2.89643864 8.17156111 -7.43523825 4.37607912 -13.33203125 3.32421875 C-20.65421064 2.95873992 -25.85042571 5.39730071 -30.9765625 10.5234375 Z " fill="#F58020" transform="translate(1113.1640625,795.2890625)"/>
<path d="M0 0 C7.96409963 5.57785255 11.99150566 12.17422405 13.8359375 21.7109375 C14.87152237 30.83259605 13.06089422 39.05968439 7.6484375 46.5234375 C1.30042668 54.07170247 -5.80556653 57.12218787 -15.5390625 58.0234375 C-24.56251249 57.24555388 -32.01564914 54.233883 -38.2890625 47.5859375 C-44.27784366 40.13148095 -45.86118933 32.57387105 -45.54296875 23.109375 C-44.55030977 14.20614499 -40.61664436 7.79721559 -34.1640625 1.7109375 C-24.10488807 -6.25257559 -10.88207006 -6.48209949 0 0 Z M-30.9765625 10.5234375 C-35.99919306 17.84212774 -37.33890512 23.843135 -36.1640625 32.7109375 C-33.94622369 40.03185914 -29.91061518 45.07611488 -23.1640625 48.7109375 C-17.99059635 50.31342606 -13.16313018 50.41013976 -8.1640625 48.2109375 C-2.57020618 45.14193461 1.43832447 40.50616357 4.2734375 34.8359375 C5.75637445 26.59739888 5.23966586 19.96413715 0.8359375 12.7109375 C-2.89643864 8.17156111 -7.43523825 4.37607912 -13.33203125 3.32421875 C-20.65421064 2.95873992 -25.85042571 5.39730071 -30.9765625 10.5234375 Z " fill="#F58020" transform="translate(911.1640625,795.2890625)"/>
<path d="M0 0 C2.97 0 5.94 0 9 0 C9.01458252 1.16982422 9.02916504 2.33964844 9.04418945 3.54492188 C9.10246383 7.91371168 9.17969363 12.2820017 9.26245117 16.65039062 C9.29556404 18.53572435 9.32363782 20.42115396 9.34643555 22.30664062 C9.38023376 25.02775672 9.4325603 27.74800488 9.48828125 30.46875 C9.49467117 31.30241089 9.5010611 32.13607178 9.50764465 32.99499512 C9.65572909 38.98165967 10.37657989 44.92077419 14.41596985 49.6619873 C17.89092969 52.59724733 21.67201352 52.35475299 26 52 C32.94186947 49.77538546 37.10350641 45.35819993 41.05078125 39.41894531 C42.44994986 35.85336852 42.35870778 32.29509266 42.4140625 28.515625 C42.43342865 27.70003113 42.4527948 26.88443726 42.4727478 26.04412842 C42.53239575 23.44619108 42.57886942 20.84820907 42.625 18.25 C42.66319342 16.48565806 42.70224595 14.72133449 42.7421875 12.95703125 C42.83808505 8.63817054 42.92217047 4.31922256 43 0 C45.64 0 48.28 0 51 0 C51.01213028 0.93294388 51.01213028 0.93294388 51.02450562 1.88473511 C51.11036507 8.34085016 51.20985976 14.79665154 51.31738281 21.25244141 C51.35573647 23.66384628 51.3905779 26.07530962 51.421875 28.48681641 C51.46738703 31.94715313 51.52540404 35.40708508 51.5859375 38.8671875 C51.59748871 39.95055389 51.60903992 41.03392029 51.62094116 42.15011597 C51.64081085 43.1510025 51.66068054 44.15188904 51.68115234 45.18310547 C51.69447601 46.06690887 51.70779968 46.95071228 51.7215271 47.86129761 C51.80669004 50.2132825 51.80669004 50.2132825 54 52 C54.26991906 54.68839385 54.08737357 57.29141936 54 60 C50.82934761 60.21618085 48.62434327 60.31217164 45.75 58.875 C43.50067618 56.46501019 42.84094381 54.15353929 42 51 C41.57589844 51.39832031 41.15179687 51.79664063 40.71484375 52.20703125 C33.6220375 58.61393976 26.58365686 61.20190288 17 61 C12.13253599 60.22631359 8.88780639 58.75270542 5.125 55.5625 C-2.02158235 45.37865838 -0.35352777 31.0327506 -0.1875 19.25 C-0.17242104 17.37761497 -0.15873834 15.50521815 -0.14648438 13.6328125 C-0.11374439 9.08824566 -0.06214095 4.54425601 0 0 Z " fill="#F58020" transform="translate(1716,792)"/>
<path d="M0 0 C3.4551326 -0.50587842 6.55913768 -0.67132455 10 0 C12.74973836 2.28355148 14.20711504 5.1239714 15.875 8.25 C16.36476318 9.09087158 16.85452637 9.93174316 17.35913086 10.7980957 C18.39757684 12.58586079 19.42024434 14.38286952 20.42822266 16.18798828 C22.55241044 19.98829815 24.7488572 23.743312 26.96728516 27.48925781 C28.01891652 29.26805026 29.05674194 31.05508789 30.07958984 32.85058594 C30.78462646 34.05956543 30.78462646 34.05956543 31.50390625 35.29296875 C31.91455322 36.0099292 32.3252002 36.72688965 32.74829102 37.46557617 C33.16135498 37.97193604 33.57441895 38.4782959 34 39 C34.99 39 35.98 39 37 39 C38.5844091 36.65295783 39.95365992 34.35014812 41.3125 31.875 C42.20213927 30.33071102 43.09419982 28.78781515 43.98828125 27.24609375 C45.56030609 24.51490438 47.12423458 21.77991592 48.67333984 19.03564453 C50.41339467 15.98068682 52.20209163 12.9586945 54 9.9375 C54.81658081 8.46482666 54.81658081 8.46482666 55.6496582 6.96240234 C57.27450458 4.27762461 58.6713662 2.10716047 61 0 C64.48607109 -0.80187302 67.49675747 -0.63042506 71 0 C66.67696063 8.15487058 61.99504491 16.03654677 57.125 23.875 C56.12146484 25.49728516 56.12146484 25.49728516 55.09765625 27.15234375 C54.09412109 28.77462891 54.09412109 28.77462891 53.0703125 30.4296875 C52.07499512 32.06272827 52.07499512 32.06272827 51.05957031 33.72875977 C49.68419544 35.91328417 48.24457771 38.05862178 46.74511719 40.15991211 C40.793326 48.77913 39.84424354 55.61292423 40 65.8125 C39.99188185 67.19859347 39.98018066 68.58467073 39.96484375 69.97070312 C39.94153602 73.3153629 39.95384964 76.65570147 40 80 C37.03 80 34.06 80 31 80 C31.04302246 79.21165771 31.08604492 78.42331543 31.13037109 77.61108398 C31.94419055 58.46966155 29.64656488 45.74792695 18.06396484 29.89746094 C14.34767309 24.68040977 11.0519535 19.19755998 7.6875 13.75 C7.03571777 12.71891113 6.38393555 11.68782227 5.71240234 10.62548828 C5.10992676 9.6714209 4.50745117 8.71735352 3.88671875 7.734375 C3.35264404 6.89100586 2.81856934 6.04763672 2.26831055 5.17871094 C1 3 1 3 0 0 Z " fill="#F58020" transform="translate(1581,771)"/>
<path d="M0 0 C0.556875 0.44988281 1.11375 0.89976562 1.6875 1.36328125 C1.11555835 4.6805428 0.11749536 6.08963948 -2.3125 8.36328125 C-2.84359375 8.01394531 -3.3746875 7.66460938 -3.921875 7.3046875 C-4.62828125 6.84964844 -5.3346875 6.39460937 -6.0625 5.92578125 C-6.75859375 5.47332031 -7.4546875 5.02085937 -8.171875 4.5546875 C-13.4243184 1.63133853 -19.44978665 1.72787157 -25.3125 2.36328125 C-28.46681729 3.65312805 -30.75185168 5.24198462 -32.3125 8.36328125 C-32.81257794 11.8211414 -32.81257794 11.8211414 -32.3125 15.36328125 C-27.34065273 19.44619117 -20.33939234 20.39340319 -14.23632812 21.9375 C-0.54291669 25.60870851 -0.54291669 25.60870851 2.88256836 31.375 C4.45099755 35.24921514 4.21190997 39.27158868 3.6875 43.36328125 C1.12290953 48.49246218 -2.19702909 52.1095598 -7.57421875 54.2734375 C-18.08908732 57.73545395 -28.04271756 56.80848139 -38.08203125 52.05078125 C-40.20051096 50.87644289 -42.27167142 49.66714395 -44.3125 48.36328125 C-43.83036386 43.78298791 -43.83036386 43.78298791 -41.51953125 41.91015625 C-39.3125 41.36328125 -39.3125 41.36328125 -37.19921875 42.19140625 C-36.47347656 42.660625 -35.74773437 43.12984375 -35 43.61328125 C-28.40416483 47.57510041 -21.91202989 49.68812381 -14.19921875 47.86328125 C-10.6834512 46.73206537 -8.70537371 45.81568128 -6.25 42.98828125 C-5.10757931 39.7895033 -4.95006124 38.48887604 -6.3125 35.36328125 C-11.32772196 31.27469673 -16.61459149 29.93652999 -22.8125 28.36328125 C-37.33740361 24.67634616 -37.33740361 24.67634616 -41.25 18.11328125 C-42.89844209 12.29525036 -42.42464956 8.42870186 -39.5625 3.11328125 C-29.82811768 -8.78429714 -12.19023679 -8.62788719 0 0 Z " fill="#F58020" transform="translate(1548.3125,796.63671875)"/>
<path d="M0 0 C2.97 0 5.94 0 9 0 C9 6.6 9 13.2 9 20 C13.29 20 17.58 20 22 20 C22 22.31 22 24.62 22 27 C17.71 27 13.42 27 9 27 C9.06878651 32.78452712 9.15670867 38.5683251 9.26245117 44.35229492 C9.29572486 46.32031171 9.32374915 48.28842449 9.34643555 50.2565918 C9.37993678 53.08423812 9.43224963 55.91100282 9.48828125 58.73828125 C9.49467117 59.61962234 9.5010611 60.50096344 9.50764465 61.40901184 C9.53733589 62.6399482 9.53733589 62.6399482 9.56762695 63.89575195 C9.57873001 64.61745071 9.58983307 65.33914948 9.60127258 66.0827179 C10.12084002 68.58105961 10.97176978 69.48343582 13 71 C17.17604728 71.30933684 20.93698954 70.98497223 25 70 C26.4606285 72.64738916 27 73.89448334 27 77 C20.62730032 79.8857508 14.99679527 80.96139172 8 80 C4.57759966 78.378863 2.72620897 77.2818288 0.85986328 73.98754883 C-0.39888786 69.61408554 -0.24520918 65.41419756 -0.1953125 60.88671875 C-0.1924826 59.91716751 -0.18965271 58.94761627 -0.18673706 57.94868469 C-0.17556991 54.86149595 -0.15047152 51.77460061 -0.125 48.6875 C-0.11496573 46.59049899 -0.10584066 44.49349342 -0.09765625 42.39648438 C-0.07564188 37.2642104 -0.04113571 32.1321549 0 27 C-2.64 27 -5.28 27 -8 27 C-8 24.69 -8 22.38 -8 20 C-5.36 20 -2.72 20 0 20 C0 13.4 0 6.8 0 0 Z " fill="#F58020" transform="translate(1917,772)"/>
<path d="M0 0 C2.97 0 5.94 0 9 0 C9 6.6 9 13.2 9 20 C13.29 20 17.58 20 22 20 C22 22.31 22 24.62 22 27 C17.71 27 13.42 27 9 27 C9.06878651 32.78452712 9.15670867 38.5683251 9.26245117 44.35229492 C9.29572486 46.32031171 9.32374915 48.28842449 9.34643555 50.2565918 C9.37993678 53.08423812 9.43224963 55.91100282 9.48828125 58.73828125 C9.49467117 59.61962234 9.5010611 60.50096344 9.50764465 61.40901184 C9.53733589 62.6399482 9.53733589 62.6399482 9.56762695 63.89575195 C9.57873001 64.61745071 9.58983307 65.33914948 9.60127258 66.0827179 C10.12084002 68.58105961 10.97176978 69.48343582 13 71 C17.17604728 71.30933684 20.93698954 70.98497223 25 70 C26.4606285 72.64738916 27 73.89448334 27 77 C20.62730032 79.8857508 14.99679527 80.96139172 8 80 C4.57759966 78.378863 2.72620897 77.2818288 0.85986328 73.98754883 C-0.39888786 69.61408554 -0.24520918 65.41419756 -0.1953125 60.88671875 C-0.1924826 59.91716751 -0.18965271 58.94761627 -0.18673706 57.94868469 C-0.17556991 54.86149595 -0.15047152 51.77460061 -0.125 48.6875 C-0.11496573 46.59049899 -0.10584066 44.49349342 -0.09765625 42.39648438 C-0.07564188 37.2642104 -0.04113571 32.1321549 0 27 C-2.64 27 -5.28 27 -8 27 C-8 24.69 -8 22.38 -8 20 C-5.36 20 -2.72 20 0 20 C0 13.4 0 6.8 0 0 Z " fill="#F58020" transform="translate(1474,772)"/>
<path d="M0 0 C2.97 0 5.94 0 9 0 C9 6.6 9 13.2 9 20 C13.29 20 17.58 20 22 20 C22 22.31 22 24.62 22 27 C17.71 27 13.42 27 9 27 C9.06878651 32.78452712 9.15670867 38.5683251 9.26245117 44.35229492 C9.29572486 46.32031171 9.32374915 48.28842449 9.34643555 50.2565918 C9.37993678 53.08423812 9.43224963 55.91100282 9.48828125 58.73828125 C9.49467117 59.61962234 9.5010611 60.50096344 9.50764465 61.40901184 C9.53733589 62.6399482 9.53733589 62.6399482 9.56762695 63.89575195 C9.57873001 64.61745071 9.58983307 65.33914948 9.60127258 66.0827179 C10.12084002 68.58105961 10.97176978 69.48343582 13 71 C17.17604728 71.30933684 20.93698954 70.98497223 25 70 C26.4606285 72.64738916 27 73.89448334 27 77 C20.62730032 79.8857508 14.99679527 80.96139172 8 80 C4.57759966 78.378863 2.72620897 77.2818288 0.85986328 73.98754883 C-0.39888786 69.61408554 -0.24520918 65.41419756 -0.1953125 60.88671875 C-0.1924826 59.91716751 -0.18965271 58.94761627 -0.18673706 57.94868469 C-0.17556991 54.86149595 -0.15047152 51.77460061 -0.125 48.6875 C-0.11496573 46.59049899 -0.10584066 44.49349342 -0.09765625 42.39648438 C-0.07564188 37.2642104 -0.04113571 32.1321549 0 27 C-2.64 27 -5.28 27 -8 27 C-8 24.69 -8 22.38 -8 20 C-5.36 20 -2.72 20 0 20 C0 13.4 0 6.8 0 0 Z " fill="#F58020" transform="translate(1180,772)"/>
<path d="M0 0 C1.63671875 0.81640625 1.63671875 0.81640625 3.82421875 2.31640625 C2.94921875 7.06640625 2.94921875 7.06640625 1.82421875 9.31640625 C0.81359375 8.96578125 -0.19703125 8.61515625 -1.23828125 8.25390625 C-5.14064056 7.14573119 -8.20634906 7.3240482 -12.17578125 8.31640625 C-15.49934145 10.73797334 -15.98329857 13.60684011 -16.86328125 17.50390625 C-17.51296875 20.38109375 -17.51296875 20.38109375 -18.17578125 23.31640625 C-12.89578125 23.31640625 -7.61578125 23.31640625 -2.17578125 23.31640625 C-2.17578125 25.62640625 -2.17578125 27.93640625 -2.17578125 30.31640625 C-7.45578125 30.31640625 -12.73578125 30.31640625 -18.17578125 30.31640625 C-18.17578125 47.47640625 -18.17578125 64.63640625 -18.17578125 82.31640625 C-20.81578125 82.31640625 -23.45578125 82.31640625 -26.17578125 82.31640625 C-26.17578125 65.15640625 -26.17578125 47.99640625 -26.17578125 30.31640625 C-28.81578125 30.31640625 -31.45578125 30.31640625 -34.17578125 30.31640625 C-34.17578125 28.00640625 -34.17578125 25.69640625 -34.17578125 23.31640625 C-31.53578125 23.31640625 -28.89578125 23.31640625 -26.17578125 23.31640625 C-26.23378906 22.71054687 -26.29179688 22.1046875 -26.3515625 21.48046875 C-26.73704122 14.32157832 -25.22305432 9.24663524 -21.17578125 3.31640625 C-15.92365394 -2.19832743 -7.03088011 -2.20898388 0 0 Z " fill="#F58020" transform="translate(1067.17578125,768.68359375)"/>
<path d="M0 0 C4.22147705 1.43791659 7.20741132 3.54794358 10.6875 6.3125 C20.14796704 13.62572371 29.49408348 18.38984898 41.69140625 18.0546875 C43.14517303 18.02940927 44.59894954 18.00468631 46.05273438 17.98046875 C48.31306352 17.9308128 50.57286769 17.87469451 52.83276367 17.80810547 C55.03567674 17.74742442 57.23792079 17.71209331 59.44140625 17.6796875 C61.40122437 17.62917236 61.40122437 17.62917236 63.40063477 17.57763672 C67.6223282 18.07302637 69.71821006 19.35591838 73 22 C75.75993994 26.06811956 75.59302063 30.255835 75 35 C73.25669434 41.49777564 70.29728203 47.66947194 65 52 C62.8125 52.68359375 62.8125 52.68359375 61 53 C62.01979151 50.44359957 63.04527256 47.89153782 64.10546875 45.3515625 C66.31714262 39.77846372 67.77819754 35.84264905 66 30 C63.42388284 28.71194142 61.84578297 29.01971289 58.9765625 29.2265625 C41.24187223 30.3491359 27.86836324 29.83502581 13.9375 17.8125 C2.32752268 6.98256803 2.32752268 6.98256803 0 0 Z " fill="#FFFFFF" transform="translate(2024,520)"/>
<path d="M0 0 C2.64 0 5.28 0 8 0 C8.33 3.3 8.66 6.6 9 10 C9.474375 9.278125 9.94875 8.55625 10.4375 7.8125 C14.19622098 3.68707454 18.70798907 0.43530723 24.36328125 -0.3125 C26.5625 -0.3125 26.5625 -0.3125 30 0 C30 2.64 30 5.28 30 8 C29.28714844 8.14695312 28.57429688 8.29390625 27.83984375 8.4453125 C20.66401953 10.12578816 15.19438407 12.30168251 10.94213867 18.5559082 C9.53800976 22.19849296 9.64085867 25.84925797 9.5859375 29.703125 C9.56657135 30.54091492 9.5472052 31.37870483 9.5272522 32.24188232 C9.46759276 34.91115213 9.42112587 37.58046539 9.375 40.25 C9.33680764 42.06251854 9.29775518 43.87501918 9.2578125 45.6875 C9.16190248 50.12485415 9.0778212 54.56229325 9 59 C6.03 59 3.06 59 0 59 C0 39.53 0 20.06 0 0 Z " fill="#F58020" transform="translate(1783,792)"/>
<path d="M0 0 C2.64 0 5.28 0 8 0 C8.33 3.3 8.66 6.6 9 10 C9.474375 9.278125 9.94875 8.55625 10.4375 7.8125 C14.19622098 3.68707454 18.70798907 0.43530723 24.36328125 -0.3125 C26.5625 -0.3125 26.5625 -0.3125 30 0 C30 2.64 30 5.28 30 8 C29.28714844 8.14695312 28.57429688 8.29390625 27.83984375 8.4453125 C20.66401953 10.12578816 15.19438407 12.30168251 10.94213867 18.5559082 C9.53800976 22.19849296 9.64085867 25.84925797 9.5859375 29.703125 C9.56657135 30.54091492 9.5472052 31.37870483 9.5272522 32.24188232 C9.46759276 34.91115213 9.42112587 37.58046539 9.375 40.25 C9.33680764 42.06251854 9.29775518 43.87501918 9.2578125 45.6875 C9.16190248 50.12485415 9.0778212 54.56229325 9 59 C6.03 59 3.06 59 0 59 C0 39.53 0 20.06 0 0 Z " fill="#F58020" transform="translate(1139,792)"/>
<path d="M0 0 C2.64 0 5.28 0 8 0 C8.33 3.3 8.66 6.6 9 10 C9.474375 9.278125 9.94875 8.55625 10.4375 7.8125 C14.19622098 3.68707454 18.70798907 0.43530723 24.36328125 -0.3125 C26.5625 -0.3125 26.5625 -0.3125 30 0 C30 2.64 30 5.28 30 8 C29.28714844 8.14695312 28.57429687 8.29390625 27.83984375 8.4453125 C20.66401953 10.12578816 15.19438407 12.30168251 10.94213867 18.5559082 C9.53800976 22.19849296 9.64085867 25.84925797 9.5859375 29.703125 C9.56657135 30.54091492 9.5472052 31.37870483 9.5272522 32.24188232 C9.46759276 34.91115213 9.42112587 37.58046539 9.375 40.25 C9.33680764 42.06251854 9.29775518 43.87501918 9.2578125 45.6875 C9.16190248 50.12485415 9.0778212 54.56229325 9 59 C6.03 59 3.06 59 0 59 C0 39.53 0 20.06 0 0 Z " fill="#F58020" transform="translate(663,792)"/>
<path d="M0 0 C0.42880585 4.37381963 0.48534354 6.34825296 -2.1875 9.9375 C-5 12 -5 12 -7.75 12.375 C-10 12 -10 12 -11 11 C-11.43784542 7.14696032 -11.30585252 5.45877878 -9.125 2.1875 C-5.79714368 -1.23823445 -4.49969689 -1.06571768 0 0 Z " fill="#FFFFFF" transform="translate(1964,417)"/>
<path d="M0 0 C1.875 0.75 1.875 0.75 2.875 1.75 C3.29709289 5.46441739 3.10674237 7.33999427 1.25 10.625 C-1.125 12.75 -1.125 12.75 -4.375 13.0625 C-5.2825 12.959375 -6.19 12.85625 -7.125 12.75 C-8.13070979 9.55001432 -8.34364753 8.20915981 -6.875 5.125 C-2.85149573 -0.33547009 -2.85149573 -0.33547009 0 0 Z " fill="#FFFFFF" transform="translate(1988.125,424.25)"/>
<path d="M0 0 C0.8971875 0.5259375 0.8971875 0.5259375 1.8125 1.0625 C2.1559538 4.75462837 2.034121 6.67040131 0.1875 9.9375 C-2.1875 12.0625 -2.1875 12.0625 -5.4375 12.375 C-6.345 12.271875 -7.2525 12.16875 -8.1875 12.0625 C-8.55351307 4.74223856 -8.55351307 4.74223856 -6.875 1.625 C-4.48963971 -0.58366693 -3.06354769 -1.31294901 0 0 Z " fill="#FFFFFF" transform="translate(1942.1875,404.9375)"/>
<path d="M0 0 C0.75 2.1875 0.75 2.1875 1 5 C-0.5625 7.75 -0.5625 7.75 -3 10 C-6.25 10.8125 -6.25 10.8125 -9 11 C-9.92117061 7.39906035 -10.28640374 5.61372229 -8.6875 2.1875 C-5.84931065 -1.49163434 -4.27795681 -1.0132003 0 0 Z " fill="#FFFFFF" transform="translate(1927,390)"/>
<path d="M0 0 C2.31 0 4.62 0 7 0 C7 3.63 7 7.26 7 11 C4.69 11 2.38 11 0 11 C0 7.37 0 3.74 0 0 Z " fill="#F58020" transform="translate(2084,840)"/>
</svg>
